<svg xmlns="http://www.w3.org/2000/svg" viewBox="0 0 276.11 87.17"><defs><style>.cls-1{fill:#231815;}.cls-2{fill:#040000;}</style></defs><title>logo_bk자산 1</title><g id="레이어_2" data-name="레이어 2"><g id="레이어_1-2" data-name="레이어 1"><path class="cls-1" d="M39.2,19.23A3.77,3.77,0,0,1,36.6,18c-1.43-1.35-2.82-2.78-4.16-4.16l-2-2.09A1.65,1.65,0,0,1,30,9.91a1.93,1.93,0,0,1,1.73-1.2A1.7,1.7,0,0,1,33,9.24l5.1,5.15a3.08,3.08,0,0,1,.33.37,3.27,3.27,0,0,0,.71.69l.12.06.13-.15c.46-.58.89-1.21,1.3-1.82l.64-.92L49.52,1A1.79,1.79,0,0,1,51,.25a2,2,0,0,1,1.75,1,1.52,1.52,0,0,1-.16,1.63c-1.14,1.59-2.26,3.19-3.38,4.79-2.24,3.19-4.55,6.49-6.91,9.66A4,4,0,0,1,39.2,19.23Z"/><path class="cls-1" d="M51,.5c1.11,0,2.2,1.11,1.38,2.25C49,7.57,45.64,12.46,42.12,17.21A3.76,3.76,0,0,1,39.2,19a3.52,3.52,0,0,1-2.43-1.12c-2.13-2-4.13-4.17-6.2-6.25A1.58,1.58,0,0,1,31.74,9a1.41,1.41,0,0,1,1,.46l5.1,5.14A7.09,7.09,0,0,0,39,15.66c.16.08.26.14.28.19l-.12.12q.15,0,.12-.12a2.52,2.52,0,0,0,.3-.35c.7-.86,1.3-1.83,2-2.73Q45.6,7,49.72,1.18A1.55,1.55,0,0,1,51,.5M51,0h0a2.07,2.07,0,0,0-1.71.89L41.08,12.48c-.22.3-.43.61-.64.92-.41.6-.84,1.23-1.29,1.79h0a4,4,0,0,1-.57-.59c-.13-.14-.24-.28-.35-.39l-5.1-5.14a2,2,0,0,0-1.39-.61,2.2,2.2,0,0,0-2,1.36A1.91,1.91,0,0,0,30.22,12l2,2.09c1.35,1.38,2.74,2.81,4.16,4.16a4,4,0,0,0,2.78,1.26,4.21,4.21,0,0,0,3.32-2c2.37-3.18,4.68-6.48,6.92-9.67Q51.12,5.43,52.81,3A1.77,1.77,0,0,0,53,1.15,2.24,2.24,0,0,0,51,0Z"/><path class="cls-2" d="M13.66,60.48a11.94,11.94,0,0,1-8.95-3.43,14.42,14.42,0,0,1-3.64-8.93,1.77,1.77,0,0,1-.07-.5V22.09a2.25,2.25,0,0,1,2.28-2.21,2.25,2.25,0,0,1,2.28,2.21v5.77H18.64a2.21,2.21,0,1,1,0,4.42h-13v13.3c0,.64-.3,5.63,2.44,8.45a7.51,7.51,0,0,0,5.63,2h5a2.21,2.21,0,1,1,0,4.42Z"/><path class="cls-2" d="M3.28,20.88a1.25,1.25,0,0,1,1.28,1.21v6.77H18.64a1.21,1.21,0,1,1,0,2.42h-14v14.3c0,.16-.47,5.87,2.72,9.15a8.48,8.48,0,0,0,6.35,2.33h5a1.21,1.21,0,1,1,0,2.42h-5a11,11,0,0,1-8.24-3.12A13.67,13.67,0,0,1,2.05,48a1.26,1.26,0,0,1,0-.33V22.09a1.24,1.24,0,0,1,1.28-1.21m0-2A3.25,3.25,0,0,0,0,22.09V47.62a3,3,0,0,0,.08.66A15.37,15.37,0,0,0,4,57.75a12.92,12.92,0,0,0,9.67,3.73h5a3.21,3.21,0,1,0,0-6.42h-5a6.58,6.58,0,0,1-4.91-1.72c-2.49-2.56-2.18-7.4-2.17-7.61a.71.71,0,0,0,0-.15V33.28H18.64a3.21,3.21,0,1,0,0-6.42H6.56V22.09a3.25,3.25,0,0,0-3.28-3.21Z"/><path class="cls-2" d="M39.94,60.53c-8.91,0-16.16-6.89-16.16-15.35V40c0-8.47,7.25-15.35,16.16-15.35S56.11,31.53,56.11,40v5.18C56.11,53.64,48.86,60.53,39.94,60.53Zm0-31.47C33.54,29.06,28.33,34,28.33,40v5.18c0,6,5.21,10.93,11.61,10.93S51.56,51.2,51.56,45.18V40C51.56,34,46.35,29.06,39.94,29.06Z"/><path class="cls-2" d="M39.94,25.65c8.37,0,15.17,6.43,15.17,14.35v5.18c0,7.91-6.8,14.35-15.17,14.35S24.78,53.09,24.78,45.18V40c0-7.92,6.8-14.35,15.16-14.35m0,31.46c7,0,12.62-5.35,12.62-11.93V40c0-6.58-5.66-11.94-12.62-11.94S27.33,33.42,27.33,40v5.18c0,6.58,5.66,11.93,12.61,11.93m0-33.46C30.48,23.65,22.78,31,22.78,40v5.18c0,9,7.7,16.35,17.16,16.35s17.17-7.34,17.17-16.35V40c0-9-7.7-16.35-17.17-16.35Zm0,31.46c-5.85,0-10.61-4.46-10.61-9.93V40c0-5.48,4.76-9.94,10.61-9.94S50.56,34.52,50.56,40v5.18c0,5.47-4.76,9.93-10.62,9.93Z"/><path class="cls-2" d="M76.44,60.53a16.15,16.15,0,0,1-15-9.58,14.74,14.74,0,0,1-1.18-5.77V28.41a2.28,2.28,0,0,1,4.55,0V45.18c0,6,5.21,10.93,11.61,10.93S88.06,51.2,88.06,45.18V28.41a2.28,2.28,0,0,1,4.55,0V45.18A14.58,14.58,0,0,1,91.42,51,16.13,16.13,0,0,1,76.44,60.53Z"/><path class="cls-2" d="M90.34,27.2a1.24,1.24,0,0,1,1.27,1.21V45.18a13.44,13.44,0,0,1-1.11,5.37,15.5,15.5,0,0,1-28.12,0,13.6,13.6,0,0,1-1.1-5.37V28.41a1.28,1.28,0,0,1,2.55,0V45.18c0,6.58,5.66,11.93,12.61,11.93s12.62-5.35,12.62-11.93V28.41a1.24,1.24,0,0,1,1.28-1.21m0-2a3.25,3.25,0,0,0-3.28,3.21V45.18c0,5.47-4.76,9.93-10.62,9.93s-10.61-4.46-10.61-9.93V28.41a3.28,3.28,0,0,0-6.55,0V45.18a15.44,15.44,0,0,0,1.27,6.16,17.49,17.49,0,0,0,31.79,0,15.44,15.44,0,0,0,1.27-6.16V28.41a3.25,3.25,0,0,0-3.27-3.21Z"/><path class="cls-2" d="M135.55,75.52a2.24,2.24,0,0,1-2.27-2.21V28.49a2.28,2.28,0,0,1,4.55,0v.84a16.55,16.55,0,0,1,11.61-4.68c8.92,0,16.17,6.89,16.17,15.35v5.18c0,8.46-7.25,15.35-16.17,15.35a16.55,16.55,0,0,1-11.61-4.68V73.31A2.25,2.25,0,0,1,135.55,75.52Zm13.89-46.45c-6.4,0-11.61,4.9-11.61,10.93v5.18c0,6,5.21,10.93,11.61,10.93s11.62-4.9,11.62-10.93V40C161.06,34,155.85,29.07,149.44,29.07Z"/><path class="cls-2" d="M149.44,25.65c8.37,0,15.17,6.44,15.17,14.35v5.18c0,7.91-6.8,14.35-15.17,14.35a15.4,15.4,0,0,1-12.61-6.39V73.31a1.28,1.28,0,0,1-2.56,0V28.49a1.28,1.28,0,0,1,2.56,0V32a15.4,15.4,0,0,1,12.61-6.39m0,31.46c7,0,12.62-5.35,12.62-11.93V40c0-6.58-5.66-11.93-12.62-11.93S136.83,33.42,136.83,40v5.18c0,6.58,5.66,11.93,12.61,11.93m0-33.46a17.64,17.64,0,0,0-10.83,3.68,3.29,3.29,0,0,0-3.06-2,3.25,3.25,0,0,0-3.28,3.21V73.31a3.28,3.28,0,0,0,6.56,0V58a17.64,17.64,0,0,0,10.61,3.51c9.47,0,17.17-7.34,17.17-16.35V40c0-9-7.7-16.35-17.17-16.35Zm0,31.46c-5.85,0-10.61-4.45-10.61-9.93V40c0-5.48,4.76-9.93,10.61-9.93s10.62,4.45,10.62,9.93v5.18c0,5.48-4.76,9.93-10.62,9.93Z"/><path class="cls-2" d="M185.94,60.53c-8.91,0-16.17-6.89-16.17-15.35V40c0-8.46,7.26-15.35,16.17-15.35a16.57,16.57,0,0,1,11.62,4.68v-.84a2.28,2.28,0,0,1,4.55,0v28.2a2.28,2.28,0,0,1-4.55,0v-.84A16.57,16.57,0,0,1,185.94,60.53Zm0-31.46c-6.4,0-11.61,4.9-11.61,10.93v5.18c0,6,5.21,10.93,11.61,10.93s11.62-4.9,11.62-10.93V40C197.56,34,192.35,29.07,185.94,29.07Z"/><path class="cls-2" d="M185.94,25.65A15.42,15.42,0,0,1,198.56,32V28.49a1.28,1.28,0,0,1,2.55,0v28.2a1.28,1.28,0,0,1-2.55,0V53.14a15.42,15.42,0,0,1-12.62,6.39c-8.36,0-15.17-6.44-15.17-14.35V40c0-7.91,6.81-14.35,15.17-14.35m0,31.46c7,0,12.62-5.35,12.62-11.93V40c0-6.58-5.66-11.93-12.62-11.93S173.33,33.42,173.33,40v5.18c0,6.58,5.66,11.93,12.61,11.93m0-33.46c-9.46,0-17.17,7.34-17.17,16.35v5.18c0,9,7.71,16.35,17.17,16.35a17.65,17.65,0,0,0,10.84-3.68,3.29,3.29,0,0,0,3.06,2,3.25,3.25,0,0,0,3.27-3.21V28.49a3.25,3.25,0,0,0-3.27-3.21,3.29,3.29,0,0,0-3.06,2,17.65,17.65,0,0,0-10.84-3.68Zm0,31.46c-5.85,0-10.61-4.45-10.61-9.93V40c0-5.48,4.76-9.93,10.61-9.93s10.62,4.45,10.62,9.93v5.18c0,5.48-4.76,9.93-10.62,9.93Z"/><path class="cls-2" d="M99.11,59.17A2.25,2.25,0,0,1,96.83,57V28.76a2.28,2.28,0,0,1,4.55,0v.84A16.59,16.59,0,0,1,113,24.92c8,0,14.87,5.65,16,13.17a.91.91,0,0,1,.06.4,1,1,0,0,1-.12.53A2.31,2.31,0,0,1,127,40.51a1.51,1.51,0,0,1-.3,0,2.31,2.31,0,0,1-2.18-1.45,1,1,0,0,1-.06-.48A11.44,11.44,0,0,0,113,29.34c-6.41,0-11.62,4.9-11.62,10.93V57A2.24,2.24,0,0,1,99.11,59.17Z"/><path class="cls-2" d="M113,25.92c7.7,0,14.07,5.46,15,12.5h0s0,0,0,.06v0h0a1.29,1.29,0,0,1-1.15,1h-.18a1.31,1.31,0,0,1-1.25-.8h0A12.4,12.4,0,0,0,113,28.34c-7,0-12.62,5.35-12.62,11.93V57a1.28,1.28,0,0,1-2.55,0V28.76a1.28,1.28,0,0,1,2.55,0v3.55A15.43,15.43,0,0,1,113,25.92m15.06,12.5h0M113,23.92a17.69,17.69,0,0,0-10.84,3.68,3.29,3.29,0,0,0-3-2.05,3.25,3.25,0,0,0-3.28,3.21V57a3.28,3.28,0,0,0,6.55,0V40.27c0-5.48,4.77-9.93,10.62-9.93a10.44,10.44,0,0,1,10.47,8.34,2,2,0,0,0,.12.76,3.33,3.33,0,0,0,3.12,2.09l.42,0A3.28,3.28,0,0,0,130,39a2,2,0,0,0,.05-.24,1.64,1.64,0,0,0,0-.38,2.11,2.11,0,0,0-.09-.62c-1.27-7.94-8.5-13.88-17-13.88Z"/><path class="cls-2" d="M258.94,60.53c-8.91,0-16.17-6.89-16.17-15.35V40c0-8.46,7.26-15.35,16.17-15.35S275.11,31.54,275.11,40v3.17a1,1,0,0,1-.8,1,2.4,2.4,0,0,1-.46,0H247.33v.93c0,6,5.21,10.93,11.61,10.93a11.65,11.65,0,0,0,9.86-5.21,1,1,0,0,1,.29-.29,2.28,2.28,0,0,1,1.27-.38,2.45,2.45,0,0,1,1.59.6,2.21,2.21,0,0,1,.47,2.82,1.25,1.25,0,0,1-.09.12A16.39,16.39,0,0,1,258.94,60.53Zm11.62-20.7c-.1-5.95-5.27-10.76-11.62-10.76s-11.51,4.81-11.61,10.76Z"/><path class="cls-2" d="M258.94,25.65c8.37,0,15.17,6.44,15.17,14.35v3.22a1.09,1.09,0,0,1-.26,0H246.33v1.93c0,6.58,5.66,11.93,12.61,11.93a12.65,12.65,0,0,0,10.7-5.67,1.32,1.32,0,0,1,.72-.21,1.44,1.44,0,0,1,.93.35,1.21,1.21,0,0,1,.28,1.55h0a15.45,15.45,0,0,1-12.63,6.4c-8.36,0-15.17-6.44-15.17-14.35V40c0-7.91,6.81-14.35,15.17-14.35M246.33,40.83h25.23V40c0-6.58-5.66-11.93-12.62-11.93S246.33,33.42,246.33,40v.83m12.61-17.18c-9.46,0-17.17,7.34-17.17,16.35v5.18c0,9,7.71,16.35,17.17,16.35a17.42,17.42,0,0,0,14.19-7.15,1.43,1.43,0,0,0,.14-.2,3.2,3.2,0,0,0-.66-4.1,3.39,3.39,0,0,0-2.25-.85,3.34,3.34,0,0,0-1.82.54,2.13,2.13,0,0,0-.58.58,10.64,10.64,0,0,1-9,4.76c-5.82,0-10.57-4.42-10.61-9.86h25.52a2.88,2.88,0,0,0,.65-.07,2,2,0,0,0,1.61-2V40c0-9-7.7-16.35-17.17-16.35ZM248.4,38.83a10.72,10.72,0,0,1,21.08,0Z"/><path class="cls-2" d="M222.44,86.17a16.18,16.18,0,0,1-15.25-10.26l0-.11a2.26,2.26,0,0,1,1.15-2.5,2.5,2.5,0,0,1,1.24-.33,2,2,0,0,1,1.18.36c.11.08.38.34.38.34a.88.88,0,0,1,.25.4,11.51,11.51,0,0,0,11.08,7.68c6.41,0,11.62-4.91,11.62-10.93v-15a16.57,16.57,0,0,1-11.62,4.68c-8.91,0-16.17-6.89-16.17-15.35V40c0-8.46,7.26-15.35,16.17-15.35a16.59,16.59,0,0,1,11.62,4.68V28.25a2.28,2.28,0,0,1,4.55,0V70.82C238.61,79.28,231.36,86.17,222.44,86.17Zm0-57.1c-6.4,0-11.61,4.9-11.61,10.93v5.18c0,6,5.21,10.93,11.61,10.93s11.62-4.9,11.62-10.93V40C234.06,34,228.85,29.07,222.44,29.07Z"/><path class="cls-2" d="M222.44,25.65A15.42,15.42,0,0,1,235.06,32V28.25a1.28,1.28,0,0,1,2.55,0V70.82c0,7.91-6.8,14.35-15.17,14.35a15.15,15.15,0,0,1-14.31-9.61,1.29,1.29,0,0,1,.67-1.39,1.56,1.56,0,0,1,.75-.2,1,1,0,0,1,.6.18,2.48,2.48,0,0,1,.26.23,12.58,12.58,0,0,0,12,8.37c7,0,12.62-5.35,12.62-11.93V53.14a15.42,15.42,0,0,1-12.62,6.39c-8.36,0-15.17-6.44-15.17-14.35V40c0-7.91,6.81-14.35,15.17-14.35m0,31.46c7,0,12.62-5.35,12.62-11.93V40c0-6.58-5.66-11.93-12.62-11.93S209.83,33.42,209.83,40v5.18c0,6.58,5.66,11.93,12.61,11.93m0-33.46C213,23.65,205.27,31,205.27,40v5.18c0,9,7.71,16.35,17.17,16.35A17.65,17.65,0,0,0,233.06,58v12.8c0,5.47-4.76,9.93-10.62,9.93a10.51,10.51,0,0,1-10.13-7,2,2,0,0,0-.49-.79,3.2,3.2,0,0,0-.51-.44,3,3,0,0,0-1.76-.55,3.56,3.56,0,0,0-1.73.46A3.26,3.26,0,0,0,206.19,76l.06.21a17.18,17.18,0,0,0,16.19,10.92c9.47,0,17.17-7.34,17.17-16.35V28.25a3.29,3.29,0,0,0-6.4-1,17.71,17.71,0,0,0-10.77-3.62Zm0,31.46c-5.85,0-10.61-4.45-10.61-9.93V40c0-5.48,4.76-9.93,10.61-9.93s10.62,4.45,10.62,9.93v5.18c0,5.48-4.76,9.93-10.62,9.93Z"/></g></g></svg>