<svg xmlns="http://www.w3.org/2000/svg" viewBox="0 0 1126.74 146.16"><defs><style>.cls-1{fill:#232323;}.cls-2{fill:#1840ff;}</style></defs><title>logo_gw자산 58</title><g id="레이어_2" data-name="레이어 2"><g id="레이어_1-2" data-name="레이어 1"><path class="cls-1" d="M88.86,1.93A3.79,3.79,0,0,0,85.55,0a3.42,3.42,0,0,0-2.86,1.5L68.88,20.92c-.36.51-.72,1-1.07,1.55-.69,1-1.4,2.06-2.16,3h0a6.53,6.53,0,0,1-1-1c-.2-.24-.4-.46-.58-.65L59.81,19.5l-4.26-4.3a3.26,3.26,0,0,0-2.34-1,3.7,3.7,0,0,0-3.28,2.28,3.21,3.21,0,0,0,.74,3.6c1.15,1.16,2.29,2.34,3.43,3.51,2.25,2.32,4.59,4.72,7,7a6.79,6.79,0,0,0,4.66,2.11c2,0,4-1.15,5.57-3.32,4-5.34,7.84-10.87,11.6-16.23,1.88-2.68,3.75-5.36,5.65-8A3,3,0,0,0,88.86,1.93Z"/><path class="cls-1" d="M11.05,76.43V55.8h20.2a5.38,5.38,0,1,0,0-10.76H11V37A5.44,5.44,0,0,0,5.5,31.66,5.45,5.45,0,0,0,0,37V79.85A4.65,4.65,0,0,0,.13,81C.52,85.59,2,92,6.69,96.83c4,4.15,9.47,6.25,16.21,6.25h8.35a5.38,5.38,0,1,0,0-10.76H22.9c-3.6,0-6.37-1-8.23-2.89C10.5,85.15,11,77,11,76.68,11,76.61,11.05,76.51,11.05,76.43Z"/><path class="cls-1" d="M67,39.65C51.1,39.65,38.19,52,38.19,67.07v8.68c0,15.12,12.91,27.42,28.79,27.42s28.79-12.3,28.79-27.42V67.07C95.77,52,82.85,39.65,67,39.65Zm17.8,27.42v8.68c0,9.18-8,16.66-17.8,16.66s-17.8-7.48-17.8-16.66V67.07c0-9.19,8-16.66,17.8-16.66S84.78,57.88,84.78,67.07Z"/><path class="cls-1" d="M151.47,42.25A5.44,5.44,0,0,0,146,47.63V75.75c0,9.18-8,16.66-17.8,16.66s-17.8-7.48-17.8-16.66V47.63a5.5,5.5,0,0,0-11,0V75.75a26.19,26.19,0,0,0,2.13,10.34,29.35,29.35,0,0,0,53.32,0A26.19,26.19,0,0,0,157,75.75V47.63A5.45,5.45,0,0,0,151.47,42.25Z"/><path class="cls-1" d="M250.59,39.66a29.66,29.66,0,0,0-18.18,6.16,5.5,5.5,0,0,0-5.12-3.42,5.44,5.44,0,0,0-5.49,5.38v75.14a5.5,5.5,0,0,0,11,0V97.3a29.65,29.65,0,0,0,17.8,5.87c15.87,0,28.79-12.3,28.79-27.41V67.07C279.38,52,266.46,39.66,250.59,39.66Zm17.79,27.41v8.69c0,9.18-8,16.65-17.79,16.65s-17.8-7.47-17.8-16.65V67.07c0-9.18,8-16.65,17.8-16.65S268.38,57.89,268.38,67.07Z"/><path class="cls-1" d="M335.08,42.4A5.51,5.51,0,0,0,330,45.82a29.61,29.61,0,0,0-18.17-6.16C295.91,39.66,283,52,283,67.07v8.69c0,15.11,12.91,27.41,28.79,27.41A29.61,29.61,0,0,0,330,97a5.52,5.52,0,0,0,5.12,3.43,5.45,5.45,0,0,0,5.5-5.38V47.78A5.45,5.45,0,0,0,335.08,42.4Zm-5.49,24.67v8.69c0,9.18-8,16.65-17.8,16.65S294,84.94,294,75.76V67.07c0-9.18,8-16.65,17.8-16.65S329.59,57.89,329.59,67.07Z"/><path class="cls-1" d="M189.48,40.11a29.66,29.66,0,0,0-18.18,6.16,5.5,5.5,0,0,0-5.12-3.42,5.44,5.44,0,0,0-5.49,5.38V95.51a5.5,5.5,0,0,0,11,0v-28c0-9.19,8-16.66,17.8-16.66,8.72,0,16.17,6,17.56,14a3.13,3.13,0,0,0,.2,1.28,5.69,5.69,0,0,0,5.93,3.47,5.5,5.5,0,0,0,4.76-4.14,2.71,2.71,0,0,0,.09-.41,3.29,3.29,0,0,0,.07-.63,3.47,3.47,0,0,0-.16-1C215.8,50.08,203.68,40.11,189.48,40.11Z"/><path class="cls-1" d="M434.19,39.66c-15.87,0-28.78,12.3-28.78,27.41v8.69c0,15.11,12.91,27.41,28.78,27.41a29.21,29.21,0,0,0,23.79-12,2.08,2.08,0,0,0,.24-.34A5.37,5.37,0,0,0,457.11,84a5.74,5.74,0,0,0-3.77-1.41,5.56,5.56,0,0,0-3,.9,3.21,3.21,0,0,0-1,1,17.87,17.87,0,0,1-15.13,8c-9.77,0-17.73-7.41-17.79-16.54h42.78a5.22,5.22,0,0,0,1.11-.11A3.35,3.35,0,0,0,463,72.47v-5.4C463,52,450.07,39.66,434.19,39.66Zm17.68,25.45H416.52c1-8.26,8.57-14.69,17.67-14.69S450.83,56.85,451.87,65.11Z"/><path class="cls-1" d="M396.28,42a5.5,5.5,0,0,0-5.23,3.75A29.68,29.68,0,0,0,373,39.66c-15.87,0-28.79,12.3-28.79,27.41v8.69c0,15.11,12.92,27.41,28.79,27.41a29.65,29.65,0,0,0,17.8-5.87v21.44c0,9.19-8,16.66-17.8,16.66a17.63,17.63,0,0,1-17-11.73,3.29,3.29,0,0,0-.83-1.33,7.29,7.29,0,0,0-.85-.75,5.08,5.08,0,0,0-3-.91,5.91,5.91,0,0,0-2.88.76,5.5,5.5,0,0,0-2.75,6.06c0,.12.07.24.11.36,4.07,11,15,18.3,27.15,18.3,15.88,0,28.79-12.3,28.79-27.42V47.36A5.45,5.45,0,0,0,396.28,42Zm-5.49,25.09v8.69c0,9.18-8,16.65-17.8,16.65s-17.8-7.47-17.8-16.65V67.07c0-9.18,8-16.65,17.8-16.65S390.79,57.89,390.79,67.07Z"/><path class="cls-2" d="M549.65,96.45c-4.84,8.21-13.45,11.44-21.66,11.44-16.14,0-31.74-10.23-31.74-36.73,0-24.48,16.14-35.51,31.34-35.51,8.74,0,17.22,2.69,22.06,9.41V41.57c0-3.91,3.36-6.06,7.27-6.06s7.13,2.15,7.13,6.06v61.34c0,25.69-15.88,35.91-35.38,36.05-10,.13-19.91-3-25-6.73-6.73-5-.68-15.6,7-11.16a35.11,35.11,0,0,0,17.22,4.71c13.32,0,21.79-6.46,21.79-22.33Zm0-17v-18c-2.42-9.56-10.89-13.73-18.56-13.73-10.9,0-19.64,7.54-19.64,23.14,0,16.14,7.53,25,19.91,25C539,95.91,547.23,91.34,549.65,79.5Z"/><path class="cls-2" d="M590,41.57v6.32c5.11-8.21,13.45-12.65,21.12-12.65,3.9,0,8.88.68,11.43,3.23a7.78,7.78,0,0,1,1.88,4.44c0,3.9-.8,8.61-6.45,8.61a12,12,0,0,1-4-.81,12.43,12.43,0,0,0-4.71-.8c-8.74,0-15.74,3-19.23,11.3v43.45c0,3.9-3.37,5.91-7.13,5.91-4.17,0-7.4-2-7.4-5.91V41.57c0-3.91,3.23-5.92,7.4-5.92C586.64,35.65,590,37.66,590,41.57Z"/><path class="cls-2" d="M621.48,72.77c0-24.75,16.28-38.06,35.25-38.06S691.84,48,691.84,72.77s-15.34,38.61-35.11,38.61S621.48,97.66,621.48,72.77Zm55.43,0c0-18-9.42-25.42-20.18-25.42s-20.32,7.4-20.32,25.42c0,18.7,9.69,26.1,20.32,26.1S676.91,91.47,676.91,72.77Z"/><path class="cls-2" d="M699.64,86.63V41.7c0-3.9,3.36-6.05,7.4-6.05s7.13,2.15,7.13,6.05V83.81c0,8.47,5.92,14.12,15.6,14.12,6.73,0,14.8-4.3,19-13.18v-43c0-3.9,3.36-6.05,7.26-6.05s7.13,2.15,7.13,6.05v63.09c0,3.9-3.23,5.92-7.13,5.92s-7.26-2-7.26-5.92V99.28A29.19,29.19,0,0,1,725.06,111C711.74,111,699.64,102.64,699.64,86.63Z"/><path class="cls-2" d="M788.69,41.57v4.3a26.26,26.26,0,0,1,21.52-10.49c16.68,0,31.61,10.09,31.61,36.72,0,27.44-14.93,38.34-31.74,38.34-9,0-16.68-3.77-21.39-10.76v33.9c0,4-3.23,6.19-7.13,6.19s-7.4-2.16-7.4-6.19v-92c0-3.91,3.36-6.06,7.4-6.06C785.32,35.51,788.69,37.66,788.69,41.57Zm0,21.65v19c2.82,12.24,11.3,15.87,18,15.87,12.65,0,20-9.14,20-26.09s-8.61-23.81-20-23.81C799.45,48.16,791.24,52.46,788.69,63.22Z"/><path class="cls-2" d="M885.27,41.57c2-8.34,15.2-8.48,17.36,0l13.85,52.32,13.72-53.8c1.89-8.21,16.68-5.65,13.86,3.9l-17.22,59.32c-3.09,10.63-17.22,10.76-19.77-.27l-13.46-49.1L880.3,103.18c-2.69,11.16-16.82,10.76-19.78.13L842.9,44.39c-2.83-9.55,12.11-12.91,14.26-4l14.26,54Z"/><path class="cls-2" d="M1003.92,58.78v45.47c0,4.31-3.23,6.46-7.13,6.46s-6.86-2.15-6.86-5.92v-3.63c-3.77,5.38-13.72,9.28-22.73,9.28-12.78,0-23-7.4-23-21.39,0-15.07,12.51-21.52,24.49-23.54,6.32-1.21,15.2-1.08,20.85-.54V60.13c0-9-5.65-12.51-16.95-12.51-4.58,0-11.71,2-16.15,4.17-8.2,3.63-11.56-8.34-4.84-11.57,6.19-3.36,16.41-5.38,24.08-5.38C991.68,34.84,1003.92,42.1,1003.92,58.78ZM989.53,87.44V75.33A54.32,54.32,0,0,0,972,75.6c-7.4,1.48-13.32,4.57-13.32,12.64,0,7.13,6.32,10.63,12.65,10.63C980.11,98.87,987.24,94.16,989.53,87.44Z"/><path class="cls-2" d="M1029.07,41.57v6.32c5.12-8.21,13.46-12.65,21.12-12.65,3.91,0,8.88.68,11.44,3.23a7.78,7.78,0,0,1,1.88,4.44c0,3.9-.81,8.61-6.46,8.61a11.92,11.92,0,0,1-4-.81,12.5,12.5,0,0,0-4.71-.8c-8.74,0-15.74,3-19.24,11.3v43.45c0,3.9-3.36,5.91-7.13,5.91-4.17,0-7.39-2-7.39-5.91V41.57c0-3.91,3.22-5.92,7.39-5.92C1025.71,35.65,1029.07,37.66,1029.07,41.57Z"/><path class="cls-2" d="M1126.74,67c0,6.59-2,10.22-11.44,10.22h-39.55c.68,14,9.42,21.39,21.12,21.39a35.11,35.11,0,0,0,19-5.11c6.32-4.17,12.51,5.25,6.32,10.22-4.44,3.5-13.72,7.4-25.56,7.4-21.65,0-36.18-14.39-36.18-38.87,0-25,17.08-37.27,34.3-37.27C1113.82,35,1126.74,48.83,1126.74,67ZM1076,65.64h36.46c-.41-11.83-8.21-18.16-18-18.16C1086,47.48,1077.5,53.54,1076,65.64Z"/></g></g></svg>