<svg xmlns="http://www.w3.org/2000/svg" viewBox="0 0 655.18 293.07"><defs><style>.cls-1{fill:#232323;}.cls-2{fill:#189bff;}</style></defs><title>logo_gw자산 59</title><g id="레이어_2" data-name="레이어 2"><g id="레이어_1-2" data-name="레이어 1"><path class="cls-1" d="M88.86,1.93A3.79,3.79,0,0,0,85.55,0a3.42,3.42,0,0,0-2.86,1.5L68.88,20.92c-.36.51-.72,1-1.07,1.55-.69,1-1.4,2.06-2.16,3h0a6.53,6.53,0,0,1-1-1c-.2-.24-.4-.46-.58-.65L59.81,19.5l-4.26-4.3a3.26,3.26,0,0,0-2.34-1,3.7,3.7,0,0,0-3.28,2.28,3.21,3.21,0,0,0,.74,3.6c1.15,1.16,2.29,2.34,3.43,3.51,2.25,2.32,4.59,4.72,7,7a6.79,6.79,0,0,0,4.66,2.11c2,0,4-1.15,5.57-3.32,4-5.34,7.84-10.87,11.6-16.23,1.88-2.68,3.75-5.36,5.65-8A3,3,0,0,0,88.86,1.93Z"/><path class="cls-1" d="M11.05,76.43V55.8h20.2a5.38,5.38,0,1,0,0-10.76H11V37A5.44,5.44,0,0,0,5.5,31.66,5.45,5.45,0,0,0,0,37V79.85A4.65,4.65,0,0,0,.13,81C.52,85.59,2,92,6.69,96.83c4,4.15,9.47,6.25,16.21,6.25h8.35a5.38,5.38,0,1,0,0-10.76H22.9c-3.6,0-6.37-1-8.23-2.89C10.5,85.15,11,77,11,76.68,11,76.61,11.05,76.51,11.05,76.43Z"/><path class="cls-1" d="M67,39.65C51.1,39.65,38.19,52,38.19,67.07v8.68c0,15.12,12.91,27.42,28.79,27.42s28.79-12.3,28.79-27.42V67.07C95.77,52,82.85,39.65,67,39.65Zm17.8,27.42v8.68c0,9.18-8,16.66-17.8,16.66s-17.8-7.48-17.8-16.66V67.07c0-9.19,8-16.66,17.8-16.66S84.78,57.88,84.78,67.07Z"/><path class="cls-1" d="M151.47,42.25A5.44,5.44,0,0,0,146,47.63V75.75c0,9.18-8,16.66-17.8,16.66s-17.8-7.48-17.8-16.66V47.63a5.5,5.5,0,0,0-11,0V75.75a26.19,26.19,0,0,0,2.13,10.34,29.35,29.35,0,0,0,53.32,0A26.19,26.19,0,0,0,157,75.75V47.63A5.45,5.45,0,0,0,151.47,42.25Z"/><path class="cls-1" d="M250.59,39.66a29.66,29.66,0,0,0-18.18,6.16,5.5,5.5,0,0,0-5.12-3.42,5.44,5.44,0,0,0-5.49,5.38v75.14a5.5,5.5,0,0,0,11,0V97.3a29.65,29.65,0,0,0,17.8,5.87c15.87,0,28.79-12.3,28.79-27.41V67.07C279.38,52,266.46,39.66,250.59,39.66Zm17.79,27.41v8.69c0,9.18-8,16.65-17.79,16.65s-17.8-7.47-17.8-16.65V67.07c0-9.18,8-16.65,17.8-16.65S268.38,57.89,268.38,67.07Z"/><path class="cls-1" d="M335.08,42.4A5.51,5.51,0,0,0,330,45.82a29.61,29.61,0,0,0-18.17-6.16C295.91,39.66,283,52,283,67.07v8.69c0,15.11,12.91,27.41,28.79,27.41A29.61,29.61,0,0,0,330,97a5.52,5.52,0,0,0,5.12,3.43,5.45,5.45,0,0,0,5.5-5.38V47.78A5.45,5.45,0,0,0,335.08,42.4Zm-5.49,24.67v8.69c0,9.18-8,16.65-17.8,16.65S294,84.94,294,75.76V67.07c0-9.18,8-16.65,17.8-16.65S329.59,57.89,329.59,67.07Z"/><path class="cls-1" d="M189.48,40.11a29.66,29.66,0,0,0-18.18,6.16,5.5,5.5,0,0,0-5.12-3.42,5.44,5.44,0,0,0-5.49,5.38V95.51a5.5,5.5,0,0,0,11,0v-28c0-9.19,8-16.66,17.8-16.66,8.72,0,16.17,6,17.56,14a3.13,3.13,0,0,0,.2,1.28,5.69,5.69,0,0,0,5.93,3.47,5.5,5.5,0,0,0,4.76-4.14,2.71,2.71,0,0,0,.09-.41,3.29,3.29,0,0,0,.07-.63,3.47,3.47,0,0,0-.16-1C215.8,50.08,203.68,40.11,189.48,40.11Z"/><path class="cls-1" d="M434.19,39.66c-15.87,0-28.78,12.3-28.78,27.41v8.69c0,15.11,12.91,27.41,28.78,27.41a29.21,29.21,0,0,0,23.79-12,2.08,2.08,0,0,0,.24-.34A5.37,5.37,0,0,0,457.11,84a5.74,5.74,0,0,0-3.77-1.41,5.56,5.56,0,0,0-3,.9,3.21,3.21,0,0,0-1,1,17.87,17.87,0,0,1-15.13,8c-9.77,0-17.73-7.41-17.79-16.54h42.78a5.22,5.22,0,0,0,1.11-.11A3.35,3.35,0,0,0,463,72.47v-5.4C463,52,450.07,39.66,434.19,39.66Zm17.68,25.45H416.52c1-8.26,8.57-14.69,17.67-14.69S450.83,56.85,451.87,65.11Z"/><path class="cls-1" d="M396.28,42a5.5,5.5,0,0,0-5.23,3.75A29.68,29.68,0,0,0,373,39.66c-15.87,0-28.79,12.3-28.79,27.41v8.69c0,15.11,12.92,27.41,28.79,27.41a29.65,29.65,0,0,0,17.8-5.87v21.44c0,9.19-8,16.66-17.8,16.66a17.63,17.63,0,0,1-17-11.73,3.29,3.29,0,0,0-.83-1.33,7.29,7.29,0,0,0-.85-.75,5.08,5.08,0,0,0-3-.91,5.91,5.91,0,0,0-2.88.76,5.5,5.5,0,0,0-2.75,6.06c0,.12.07.24.11.36,4.07,11,15,18.3,27.15,18.3,15.88,0,28.79-12.3,28.79-27.42V47.36A5.45,5.45,0,0,0,396.28,42Zm-5.49,25.09v8.69c0,9.18-8,16.65-17.8,16.65s-17.8-7.47-17.8-16.65V67.07c0-9.18,8-16.65,17.8-16.65S390.79,57.89,390.79,67.07Z"/><path class="cls-2" d="M55.5,248.06c-5,8.53-14,11.88-22.51,11.88-16.77,0-33-10.62-33-38.16,0-25.44,16.77-36.91,32.57-36.91,9.09,0,17.89,2.8,22.93,9.79V191c0-4.05,3.49-6.29,7.54-6.29S70.45,187,70.45,191v63.75c0,26.7-16.49,37.32-36.76,37.46-10.35.14-20.69-3.07-26-7C.7,280.07,7,269,15,273.64a36.36,36.36,0,0,0,17.89,4.89c13.84,0,22.65-6.71,22.65-23.2Zm0-17.62V211.71c-2.52-9.92-11.33-14.26-19.29-14.26-11.33,0-20.41,7.83-20.41,24.05,0,16.77,7.82,26,20.69,26C44.45,247.5,53,242.75,55.5,230.44Z"/><path class="cls-2" d="M97.43,191v6.57c5.31-8.52,14-13.14,21.95-13.14,4.05,0,9.23.7,11.88,3.36a8,8,0,0,1,2,4.61c0,4.06-.84,9-6.71,9a12.58,12.58,0,0,1-4.2-.84,12.72,12.72,0,0,0-4.89-.84c-9.08,0-16.35,3.08-20,11.74v45.16c0,4.05-3.49,6.15-7.41,6.15-4.33,0-7.69-2.1-7.69-6.15V191c0-4.05,3.36-6.15,7.69-6.15C93.94,184.87,97.43,187,97.43,191Z"/><path class="cls-2" d="M130.14,223.46c0-25.73,16.91-39.56,36.62-39.56,19.86,0,36.49,13.83,36.49,39.56s-15.94,40.11-36.49,40.11S130.14,249.32,130.14,223.46Zm57.59,0c0-18.74-9.78-26.42-21-26.42s-21.1,7.68-21.1,26.42c0,19.43,10.06,27.11,21.1,27.11S187.73,242.89,187.73,223.46Z"/><path class="cls-2" d="M211.36,237.85V191.16c0-4,3.49-6.29,7.68-6.29s7.41,2.24,7.41,6.29v43.76c0,8.8,6.15,14.68,16.22,14.68,7,0,15.38-4.48,19.71-13.7V191.16c0-4,3.49-6.29,7.55-6.29s7.41,2.24,7.41,6.29v65.56c0,4.06-3.36,6.16-7.41,6.16s-7.55-2.1-7.55-6.16V251a30.33,30.33,0,0,1-24.6,12.17C223.94,263.16,211.36,254.49,211.36,237.85Z"/><path class="cls-2" d="M303.89,191v4.48a27.3,27.3,0,0,1,22.37-10.91c17.33,0,32.85,10.49,32.85,38.17,0,28.51-15.52,39.84-33,39.84-9.37,0-17.33-3.92-22.23-11.19v35.23c0,4.19-3.35,6.43-7.41,6.43s-7.68-2.24-7.68-6.43V191c0-4.05,3.49-6.29,7.68-6.29C300.4,184.73,303.89,187,303.89,191Zm0,22.51v19.71c2.94,12.72,11.75,16.5,18.73,16.5,13.15,0,20.83-9.51,20.83-27.12s-8.94-24.75-20.83-24.75C315.08,197.87,306.55,202.35,303.89,213.53Z"/><path class="cls-2" d="M404.26,191c2.1-8.66,15.8-8.8,18,0l14.4,54.38L451,189.49c2-8.53,17.33-5.87,14.4,4l-17.89,61.65c-3.22,11-17.9,11.18-20.55-.28l-14-51-13.84,51.17c-2.8,11.6-17.47,11.18-20.55.14L360.23,194c-2.94-9.93,12.58-13.42,14.82-4.19l14.81,56Z"/><path class="cls-2" d="M527.55,208.92v47.25c0,4.47-3.35,6.71-7.4,6.71s-7.13-2.24-7.13-6.16V253c-3.92,5.59-14.26,9.65-23.63,9.65-13.28,0-23.9-7.69-23.9-22.23,0-15.66,13-22.37,25.44-24.46,6.57-1.26,15.8-1.12,21.67-.56v-5c0-9.36-5.87-13-17.62-13-4.75,0-12.16,2.09-16.77,4.33-8.53,3.77-12-8.67-5-12,6.43-3.5,17.05-5.6,25-5.6C514.83,184,527.55,191.58,527.55,208.92ZM512.6,238.69V226.11a56.6,56.6,0,0,0-18.18.28c-7.68,1.54-13.83,4.75-13.83,13.14,0,7.41,6.56,11,13.14,11C502.81,250.57,510.22,245.68,512.6,238.69Z"/><path class="cls-2" d="M553.69,191v6.57c5.32-8.52,14-13.14,21.95-13.14,4.05,0,9.23.7,11.88,3.36a8,8,0,0,1,2,4.61c0,4.06-.84,9-6.71,9a12.5,12.5,0,0,1-4.19-.84,12.8,12.8,0,0,0-4.9-.84c-9.08,0-16.35,3.08-20,11.74v45.16c0,4.05-3.49,6.15-7.41,6.15-4.33,0-7.68-2.1-7.68-6.15V191c0-4.05,3.35-6.15,7.68-6.15C550.2,184.87,553.69,187,553.69,191Z"/><path class="cls-2" d="M655.18,217.44c0,6.85-2.1,10.63-11.88,10.63H602.2c.7,14.54,9.78,22.23,21.95,22.23A36.53,36.53,0,0,0,643.86,245c6.57-4.33,13,5.45,6.57,10.63-4.62,3.63-14.26,7.69-26.56,7.69-22.51,0-37.61-15-37.61-40.4,0-26,17.76-38.73,35.65-38.73C641.76,184.17,655.18,198.57,655.18,217.44Zm-52.7-1.39h37.88c-.42-12.31-8.53-18.87-18.73-18.87C612.82,197.18,604,203.46,602.48,216.05Z"/></g></g></svg>