<svg xmlns="http://www.w3.org/2000/svg" viewBox="0 0 111.99 99.53"><defs><style>.cls-1{fill:#fff;stroke:#231815;stroke-linecap:round;stroke-linejoin:round;}</style></defs><title>back_c자산 45</title><g id="레이어_2" data-name="레이어 2"><g id="레이어_1-2" data-name="레이어 1"><path class="cls-1" d="M25.5,8.16a2.43,2.43,0,0,0,0-.27A7.7,7.7,0,0,0,10.41,6.08,9.13,9.13,0,0,0,8.59,6,8.43,8.43,0,0,0,9.27,22.8c2.86-.12,11.19.24,14.56.1,4.67-.19,8.31-3.68,8.14-7.8A7.68,7.68,0,0,0,25.5,8.16Z"/><path class="cls-1" d="M10.41,6.08A4.2,4.2,0,0,1,13.66,10"/><path class="cls-1" d="M103.81,81.28a7.6,7.6,0,0,0-7.64-6l-.4,0a14.41,14.41,0,0,0-25.23-2.43H70A13.07,13.07,0,0,0,70.81,99c3.49-.11,24.89.06,29.7-.08,6.21-.19,11.12-4.38,11-9.38C111.37,85.65,108.18,82.42,103.81,81.28Z"/><path class="cls-1" d="M70.54,72.92s-1.76,1.5-1.68,3.25"/><path class="cls-1" d="M95.77,75.4s-2-.34-4.17,3.17"/></g></g></svg>