<svg xmlns="http://www.w3.org/2000/svg" viewBox="0 0 492.12 175.67"><defs><style>.cls-1{fill:#fff;stroke:#231815;stroke-linecap:round;stroke-linejoin:round;}</style></defs><title>back_c자산 47</title><g id="레이어_2" data-name="레이어 2"><g id="레이어_1-2" data-name="레이어 1"><path class="cls-1" d="M25.5,84.31a2.61,2.61,0,0,0,0-.28,7.7,7.7,0,0,0-15.09-1.81A8.43,8.43,0,1,0,9.27,98.94c2.86-.12,11.19.24,14.56.1,4.67-.19,8.31-3.68,8.14-7.8C31.83,87.81,29.1,85,25.5,84.31Z"/><path class="cls-1" d="M10.41,82.22a4.2,4.2,0,0,1,3.25,3.88"/><path class="cls-1" d="M479.72,30.1c0-.17,0-.34,0-.51A14.13,14.13,0,0,0,452,26.28,15.48,15.48,0,1,0,449.92,57c5.24-.21,20.54.44,26.74.19,8.56-.35,15.26-6.77,14.95-14.34C491.35,36.54,486.33,31.44,479.72,30.1Z"/><path class="cls-1" d="M452,26.28s5.21.84,6,7.11"/><path class="cls-1" d="M103.81,157.43a7.61,7.61,0,0,0-7.64-6l-.4,0a14.41,14.41,0,0,0-25.23-2.43H70a13.07,13.07,0,0,0,.77,26.12c3.49-.11,24.89.06,29.7-.08,6.21-.18,11.12-4.38,11-9.38C111.37,161.79,108.18,158.56,103.81,157.43Z"/><path class="cls-1" d="M70.54,149.06s-1.76,1.5-1.68,3.25"/><path class="cls-1" d="M95.77,151.54s-2-.34-4.17,3.18"/><path class="cls-1" d="M421.78,9.78A4.77,4.77,0,0,0,417,6l-.25,0a9.08,9.08,0,0,0-15.9-1.53h-.31A8.22,8.22,0,1,0,401,21c2.2-.06,15.68,0,18.7-.05,3.91-.11,7-2.76,6.92-5.9C426.54,12.53,424.53,10.49,421.78,9.78Z"/><path class="cls-1" d="M400.82,4.51a3,3,0,0,0-1.05,2.05"/><path class="cls-1" d="M416.72,6.07s-1.28-.21-2.63,2"/><path class="cls-1" d="M483.68,106.18h-2.24a10.28,10.28,0,0,0,.89-4.19h0A10.46,10.46,0,0,0,471.9,91.55h0a10.49,10.49,0,0,0-9.68,6.54,8.25,8.25,0,0,0-6.78,8.09h0a8.27,8.27,0,0,0,5.38,7.72,4,4,0,0,0,1.95.51h20.91a4,4,0,0,0,4-4v-.19A4,4,0,0,0,483.68,106.18Z"/></g></g></svg>