<svg xmlns="http://www.w3.org/2000/svg" viewBox="0 0 334.41 27.72"><defs><style>.cls-1{fill:#fff;}</style></defs><title>font4자산 39</title><g id="레이어_2" data-name="레이어 2"><g id="레이어_1-2" data-name="레이어 1"><path class="cls-1" d="M3.72,5.19c0-.24.09-.39.48-.39s.48.15.48.39v7.05h3.6c.87,0,1.71,0,2.49,0v-7c0-.24.09-.39.48-.39s.51.15.51.39v7a36.89,36.89,0,0,0,5.31-.69c.27-.06.48,0,.51.33s0,.51-.27.57a43,43,0,0,1-8.94.81H.45A.4.4,0,0,1,0,12.72c0-.39.21-.48.45-.48H3.72Zm-3-2c-.3,0-.45-.09-.45-.45s.15-.48.45-.48H14.88c.3,0,.48.09.48.48s-.18.45-.48.45ZM5.31,17.43c-.27,0-.45-.09-.45-.45s.18-.48.45-.48H19.92c.93,0,1.2.39,1.2,1.23v3.42c0,.84-.42,1.08-1.26,1.08H6.42c-.45,0-.48.06-.48.48V26.1c0,.42,0,.48.45.48H21.9c.27,0,.45.09.45.48s-.18.45-.45.45H6.06c-.81,0-1.11-.36-1.11-1.17V22.47c0-.81.21-1.14,1.2-1.14h13.5c.42,0,.48,0,.48-.45v-3c0-.39-.06-.45-.48-.45ZM20.13.81c0-.24.09-.39.48-.39s.51.15.51.39V14.34c0,.24-.09.42-.51.42s-.48-.18-.48-.42Z"/><path class="cls-1" d="M26.22,22h6.42V16c0-.24.09-.39.51-.39s.48.15.48.39V22H42.9V16c0-.24.09-.39.48-.39s.51.15.51.39V22h6.42c.27,0,.45.09.45.45s-.18.45-.45.45H26.22c-.27,0-.45-.06-.45-.45S26,22,26.22,22Zm12.06-7.38c-6,0-9.18-2.31-9.18-6.36S32.28,2,38.28,2,47.4,4.23,47.4,8.28,44.19,14.64,38.28,14.64Zm0-11.79c-5.37,0-8.13,1.92-8.13,5.43s2.79,5.43,8.13,5.43,8.07-1.89,8.07-5.43S43.56,2.85,38.28,2.85Z"/><path class="cls-1" d="M52.62,7.29c-.3,0-.48-.09-.48-.45s.18-.48.48-.48H68.28c.27,0,.45.09.45.48s-.18.45-.45.45Zm8,2.43c4,0,6.15,1.56,6.15,4.32s-2.19,4.35-6.15,4.35S54.42,16.83,54.42,14,56.58,9.72,60.57,9.72Zm0,7.8c3.33,0,5.1-1.23,5.1-3.48s-1.77-3.45-5.1-3.45-5.1,1.23-5.1,3.45S57.24,17.52,60.57,17.52Zm-4-14.85c-.3,0-.45-.09-.45-.48s.15-.45.45-.45h7.8c.3,0,.48.09.48.45s-.18.48-.48.48Zm.78,17.91c0-.24.09-.42.48-.42s.48.18.48.42v5.55c0,.36.06.36.39.36H73.53c.3,0,.45.09.45.48s-.15.45-.45.45H58.59c-.9,0-1.26-.24-1.26-1.11ZM72,.81c0-.24.09-.39.48-.39s.48.15.48.39V11h4.59c.27,0,.45.09.45.48s-.18.45-.45.45H72.93v9.3c0,.21-.09.39-.48.39s-.48-.18-.48-.39Z"/><path class="cls-1" d="M95.19,1.65V4.38c0,5.82,3.78,8,6.87,9.15.24.06.33.36.21.66a.45.45,0,0,1-.6.24c-3.33-1.32-6.09-3.54-7-6.78C94,10.92,91.68,13.38,88,15a.41.41,0,0,1-.6-.24.51.51,0,0,1,.18-.66c3.33-1.5,6.66-3.93,6.66-9.75V1.65c0-.24.09-.39.48-.39S95.19,1.41,95.19,1.65Zm4.44,25.68c-5.64,0-8.61-1.77-8.61-5s2.94-5,8.61-5,8.61,1.8,8.61,5S105.27,27.33,99.63,27.33Zm0-9.09c-5,0-7.62,1.5-7.62,4.08s2.67,4.14,7.62,4.14,7.62-1.5,7.62-4.14S104.58,18.24,99.63,18.24Zm8-17.43V8.07h4.59c.27,0,.45.09.45.45s-.18.48-.45.48h-4.59v7.59c0,.24-.09.42-.48.42s-.48-.18-.48-.42V.81c0-.24.09-.39.48-.39S107.67.57,107.67.81Z"/><path class="cls-1" d="M114,15.09c-.27,0-.45-.09-.45-.45s.18-.48.45-.48h24.09c.27,0,.45.09.45.48s-.18.45-.45.45H126.54v3.75h7.08a1,1,0,0,1,1,1.08v6.42a1,1,0,0,1-1.08,1.08H118.47c-.63,0-1-.3-1-1.08V19.86a.9.9,0,0,1,1-1h7.08V15.09Zm2.85-12.36c-.27,0-.45-.09-.45-.48s.18-.45.45-.45h18.39c.27,0,.45.09.45.45s-.18.48-.45.48H131.1V9.84h4c.3,0,.45.09.45.45s-.15.45-.45.45H116.91c-.27,0-.45-.09-.45-.45s.18-.45.45-.45H121V2.73Zm2.07,17c-.39,0-.48.09-.48.45v5.88c0,.39.09.42.48.42H133.2c.39,0,.45,0,.45-.42V20.19c0-.36-.09-.45-.45-.45Zm3.06-17V9.84h8.13V2.73Z"/><path class="cls-1" d="M143.91,4c0-1,.24-1.35,1.29-1.35h16c.27,0,.45.09.45.45s-.18.45-.45.45H145.38c-.45,0-.51.09-.51.48v9.15c0,.39.09.48.51.48h15.81c.27,0,.45.09.45.48s-.18.45-.45.45h-8.13v7.29h11.55c.27,0,.45.09.45.45s-.18.48-.45.48H140.52c-.27,0-.45-.09-.45-.48s.18-.45.45-.45h11.55V14.58h-6.81c-1,0-1.35-.27-1.35-1.38Z"/><path class="cls-1" d="M178.59,8.73h7.77V2.58c0-.63.57-1,1.29-1S189,2,189,2.58v14c0,2.16-.24,3.15-2.25,3.15h-8.55c-1.59,0-2.19-.6-2.19-2.1V2.58c0-.6.54-1,1.26-1s1.35.36,1.35,1Zm0,8.25c0,.54.09.6.6.6h6.54c.57,0,.63-.06.63-.63V10.86h-7.77ZM193.68,1c0-.63.54-1,1.26-1s1.32.36,1.32,1V9.93h3.93c.66,0,.93.45.93,1.14s-.27,1.14-.93,1.14h-3.93V26.34c0,.72-.48,1.08-1.29,1.08s-1.29-.36-1.29-1.08Z"/><path class="cls-1" d="M213.42,16.44H207.6c-1.5,0-2-.63-2-2.1V9.93c0-1.32.45-1.95,1.89-1.95h13.08c.48,0,.57-.09.57-.57V4.56c0-.48-.06-.57-.57-.57H206.37a1.06,1.06,0,0,1-1-1.17,1,1,0,0,1,1-1.14h15.42c1.5,0,2,.57,2,2V8.13c0,1.5-.6,1.95-2.1,1.95H208.8c-.51,0-.6.09-.6.57v3c0,.45.09.54.57.54h15.09c.72,0,1,.42,1,1.08s-.27,1.14-1,1.14h-7.74v4.8h10.56c.57,0,.9.45.9,1.14s-.33,1.14-.9,1.14H202.86c-.57,0-.9-.45-.9-1.14s.33-1.14.9-1.14h10.56Z"/><path class="cls-1" d="M232.89,8.73h7.77V2.58c0-.63.57-1,1.29-1s1.32.33,1.32,1v14c0,2.16-.24,3.15-2.25,3.15h-8.55c-1.59,0-2.19-.6-2.19-2.1V2.58c0-.6.54-1,1.26-1s1.35.36,1.35,1Zm0,8.25c0,.54.09.6.6.6H240c.57,0,.63-.06.63-.63V10.86h-7.77ZM248,1c0-.63.54-1,1.26-1s1.32.36,1.32,1V9.93h3.93c.66,0,.93.45.93,1.14s-.27,1.14-.93,1.14h-3.93V26.34c0,.72-.48,1.08-1.29,1.08S248,27.06,248,26.34Z"/><path class="cls-1" d="M267.72,16.44H261.9c-1.5,0-2-.63-2-2.1V9.93c0-1.32.45-1.95,1.89-1.95h13.08c.48,0,.57-.09.57-.57V4.56c0-.48-.06-.57-.57-.57H260.67a1.06,1.06,0,0,1-1-1.17,1,1,0,0,1,1-1.14h15.42c1.5,0,2,.57,2,2V8.13c0,1.5-.6,1.95-2.1,1.95H263.1c-.51,0-.6.09-.6.57v3c0,.45.09.54.57.54h15.09c.72,0,1,.42,1,1.08s-.27,1.14-1,1.14h-7.74v4.8H281c.57,0,.9.45.9,1.14s-.33,1.14-.9,1.14H257.16c-.57,0-.9-.45-.9-1.14s.33-1.14.9-1.14h10.56Z"/><path class="cls-1" d="M297.54,26.64c0,.72-.57,1.08-1.32,1.08s-1.38-.36-1.38-1.08V16H284.25c-.57,0-.9-.45-.9-1.14s.33-1.14.9-1.14H301.2a19.91,19.91,0,0,0,1.41-7.35V4.14c0-.51-.09-.6-.6-.6H287.79a1,1,0,0,1-1-1.11c0-.72.36-1.14,1-1.14h15.48c1.5,0,2.07.51,2.07,2V5.85a19.51,19.51,0,0,1-1.56,7.86h4.35c.57,0,.87.45.87,1.14s-.3,1.14-.87,1.14H297.54Z"/><path class="cls-1" d="M311.43,5.91c0-1.92,0-3.18,2.07-3.18h7c1.56,0,2.07.63,2.07,2.16V17.31c0,1.56-.48,2.19-2.1,2.19h-7c-1.56,0-2.07-.6-2.07-2.19Zm3.18-1c-.51,0-.6.12-.6.57V16.74c0,.48.09.6.6.6h4.8c.51,0,.57-.12.57-.6V5.46c0-.45-.09-.57-.57-.57ZM331.89,1c0-.6.48-1,1.23-1s1.29.36,1.29,1V26.4c0,.69-.48,1-1.29,1s-1.23-.33-1.23-1V12.57h-3.66V25.74c0,.69-.51,1-1.29,1s-1.29-.33-1.29-1V1.47c0-.57.51-.93,1.29-.93s1.29.36,1.29.93v8.67h3.66Z"/></g></g></svg>