<svg xmlns="http://www.w3.org/2000/svg" viewBox="0 0 837.04 646.88"><defs><style>.cls-1{fill:#fff;}</style></defs><title>font자산 35</title><g id="레이어_2" data-name="레이어 2"><g id="레이어_1-2" data-name="레이어 1"><path class="cls-1" d="M98.22,4.81c0-3.06,2.62-4.81,6.26-4.81,3.94,0,6.41,1.75,6.41,4.81V127.94c0,3.5-2.47,5.25-6.41,5.25s-6.26-1.75-6.26-5.25V77.09H67.32C62.37,90.78,52.17,98.36,36.87,98.36,14,98.36,2.62,81.46,2.62,53S14,7.72,36.87,7.72C52,7.72,62.08,15.3,67.18,28.56h31Zm-61.35,14C23,18.8,15.16,29.73,15.16,53c0,23.46,7.86,34.1,21.71,34.1S58.43,76.5,58.43,53C58.43,29.73,50.57,18.8,36.87,18.8ZM70.09,66.16H98.22V39.34H70.09a99.55,99.55,0,0,1,1,13.7A73.63,73.63,0,0,1,70.09,66.16Z"/><path class="cls-1" d="M134.8,36.87c-3.21,0-4.52-1.9-4.52-5s1.6-5.1,4.52-5.1h56.39c3.06,0,4.52,2,4.52,5.1s-1.31,5-4.52,5Zm29.43,7c17.64,0,27.11,7.58,27.11,19.82S181.87,83.5,164.23,83.5c-17.48,0-27.1-7.58-27.1-19.82S146.75,43.86,164.23,43.86ZM149.66,16c-3.06,0-4.37-1.9-4.37-5s1.46-4.95,4.37-4.95h28c2.91,0,4.52,1.75,4.52,5s-1.46,5-4.52,5Zm14.57,58.73c10.49,0,15.74-4.23,15.74-11.08S174.72,52.6,164.23,52.6,148.5,56.83,148.5,63.68,153.74,74.76,164.23,74.76ZM201,89.62c30.45,0,46.33,8.45,46.33,23.31S231.41,136.25,201,136.25s-46.2-8.45-46.2-23.32S170.5,89.62,201,89.62Zm0,36.57c22.29,0,32.78-5.1,32.78-13.26S223.25,99.67,201,99.67s-32.65,5-32.65,13.26S178.66,126.19,201,126.19Zm2-119c0-2.91,2.47-4.66,6.26-4.66s6.12,1.75,6.12,4.66V41.82h18.36V4.66c0-2.91,2.48-4.66,6.12-4.66s6.27,1.75,6.27,4.66V83.94c0,3.35-2.33,5-6.27,5s-6.12-1.6-6.12-5V52.75H215.38V78.54c0,3.21-2.33,5-6.12,5s-6.26-1.75-6.26-5Z"/><path class="cls-1" d="M320.16,14.28c4.81,0,6,2,6,6,0,38.17-19.52,61.64-57.12,77.08a2,2,0,0,1-2.77-1.16c-.58-1.46-.14-2.63.88-3.06,35.26-14.28,53.77-35.56,54.21-72.28,0-1.46-.44-2-1.9-2H270.61c-1.31,0-2.18-.44-2.18-2.19s.87-2.33,2.18-2.33Zm36-10.35c0-1.16.44-1.89,2.33-1.89S361,2.77,361,3.93V52.46h23.61c1.31,0,2.18.44,2.18,2.33S385.88,57,384.57,57H361v73.15c0,1.17-.44,2-2.48,2s-2.33-.87-2.33-2Z"/><path class="cls-1" d="M435.14,9.33V36.14c0,28.85,18.65,44.15,35.41,52.6,1.45.88,1.6,1.9,1,3.06a2.21,2.21,0,0,1-3.21,1c-16.17-8.16-31.18-23-35.41-40.36-3.64,17.34-16,32.5-34.1,42.4a2,2,0,0,1-2.91-1.16,2.34,2.34,0,0,1,.87-3.06c18.36-9.91,33.66-25.5,33.66-54.5V9.33c0-1.17.44-2,2.33-2S435.14,8.16,435.14,9.33Zm61.93-5.4v126.2c0,1.17-.44,2-2.48,2-1.89,0-2.33-.87-2.33-2V3.93c0-1.16.44-1.89,2.33-1.89C496.63,2,497.07,2.77,497.07,3.93Z"/><path class="cls-1" d="M531.75,15v71.4c0,2,.44,2.33,2.33,2.33,27.55.3,48.24-1.89,64.12-5.68a1.94,1.94,0,0,1,2.62,1.6c.3,1.61-.29,2.48-1.6,2.77-16.9,4.37-35.7,5.83-65.28,5.83-5.69,0-7-2-7-7.58V15c0-1.17.44-1.9,2.34-1.9S531.75,13.84,531.75,15ZM618.6,3.93V51.44h23.61c1.31,0,2.19.29,2.19,2.19,0,1.74-.88,2.18-2.19,2.18H618.6v74.32c0,1.17-.43,2-2.47,2s-2.34-.87-2.34-2V3.93c0-1.16.44-1.89,2.34-1.89S618.6,2.77,618.6,3.93Z"/><path class="cls-1" d="M650.66,107h31.19V77.52c0-1.16.44-1.89,2.48-1.89,1.89,0,2.33.73,2.33,1.89V107h45V77.52c0-1.16.44-1.89,2.34-1.89s2.47.73,2.47,1.89V107h31.19c1.31,0,2.18.44,2.18,2.19s-.87,2.18-2.18,2.18h-117c-1.31,0-2.18-.29-2.18-2.18S649.35,107,650.66,107Zm58.58-35.85c-29,0-44.59-11.22-44.59-30.89S680.1,9.47,709.24,9.47c28.71,0,44.3,11.08,44.3,30.75S738,71.11,709.24,71.11Zm0-57.27c-26.08,0-39.49,9.33-39.49,26.38s13.56,26.37,39.49,26.37c25.65,0,39.2-9.18,39.2-26.37S734.89,13.84,709.24,13.84Z"/><path class="cls-1" d="M837,33.66c0,15-8,24.05-21.12,32.06-9.33,5.39-10.5,9.18-10.5,19.38V94a2.48,2.48,0,1,1-4.95,0V85c0-12.68,1.46-16.91,14.13-24.19,9.33-5.4,17.49-13.85,17.49-27.11,0-12.53-11.37-20.25-23.9-20.25-9.18,0-17.48,4.22-23.75,11.51-1.9,2.62-5.25-.73-3.35-3.21a34.52,34.52,0,0,1,27.1-13C823.93,8.74,837,18.36,837,33.66ZM802.8,108.71a4.81,4.81,0,1,1-4.95,4.81A4.67,4.67,0,0,1,802.8,108.71Z"/><path class="cls-1" d="M72.86,262.45c0-3.49,3.06-5.53,7.43-5.53s7.29,2,7.29,5.53v117c0,4.22-3.06,6.12-7.29,6.12s-7.43-1.9-7.43-6.12V332H56c-3.79,0-5.25-2.48-5.25-6.56,0-3.93,1.46-6.41,5.25-6.41h16.9V299H53.19c-4.81,24-18.36,42.26-41.68,55.66a8.62,8.62,0,0,1-4.37,1.46c-3.06,0-7.14-3.5-7.14-7.87A6,6,0,0,1,3.06,343c24.77-13.7,37.16-33.52,37.16-60.33,0-2.33-.58-2.77-3.5-2.77H7.87c-3.35,0-5.39-2.62-5.39-6.56s2-6.56,5.39-6.56H45.61c8.31,0,9.62,2.77,9.62,10.93,0,2.77-.15,5.54-.29,8.16H72.86ZM101.28,260c0-3.5,3.06-5.69,7.28-5.69,4.52,0,7.58,2.19,7.58,5.69V382.53c0,4.22-2.91,6.12-7.58,6.12-4.37,0-7.28-1.9-7.28-6.12Z"/><path class="cls-1" d="M138.88,346.83c-3.21,0-5-2.34-5-5.83s1.75-6.12,5-6.12h31.18v-8.16c-15.74-1.46-24.19-7.44-24.19-16.62,0-10.34,11.08-16.9,31.91-16.9s31.92,6.56,31.92,16.9c0,9.18-8.6,15.3-24.34,16.62v8.16a199.28,199.28,0,0,0,31.33-3.06c3.35-.59,6,.87,6.71,4.37.58,3.64-.73,6.26-3.79,7-8.46,2.19-25.8,3.65-41.83,3.65Zm3.64-58c-3.79,0-5.25-2.48-5.25-6S139,277,142.52,277h70.67c3.65,0,5.4,2.33,5.4,5.82s-1.61,6-5.4,6Zm14.72,78.25c-3.65,0-5.39-2.33-5.39-6,0-3.94,1.74-6.42,5.39-6.42H233.3c8.46,0,11.95,2.48,11.95,10.5v23.6c0,3.5-3.49,5.54-7.87,5.54s-7.86-2-7.86-5.54V369.85c0-2.48-.44-2.77-2.92-2.77Zm5.24-97.63c-3.78,0-5.24-2.48-5.24-6s1.75-5.83,5.24-5.83h30.9c3.49,0,5.24,2.34,5.24,5.83s-1.45,6-5.24,6Zm15.3,47.79q17.06,0,17.05-7c0-4.52-5.68-7-17.05-7s-17.19,2.47-17.19,7S166.42,317.24,177.78,317.24Zm52-57.12c0-3.64,3.2-5.83,7.72-5.83s7.72,2.19,7.72,5.83V343c0,4.37-3.06,6.26-7.72,6.26s-7.72-1.89-7.72-6.26Z"/><path class="cls-1" d="M267.84,275.28c-1.45,0-2.18-.3-2.18-2.19s.73-2.19,2.18-2.19h34.25c1.46,0,2.33.44,2.33,2.19s-.87,2.19-2.33,2.19H289.7V298c0,26.23,8.75,40.22,17.2,47.65,7.14-8,15.88-21.27,15.88-48.23V275.28H311.85c-1.31,0-2.18-.3-2.18-2.19s.87-2.19,2.18-2.19h34.68c1.46,0,2.34.44,2.34,2.19s-.88,2.19-2.34,2.19H327.59v22.15c0,27.25,10.06,39.92,21.13,47.65,1,.58,1,2.33.15,3.2a2.53,2.53,0,0,1-3.36.44c-9.32-7.29-17.19-17.2-20.25-32.5a56.14,56.14,0,0,1-15.74,33.08c-2,2.19-3.35,2.19-5.54.15a55.19,55.19,0,0,1-16.9-32.5c-2.19,15.3-9,25.36-20.11,35.12a2.36,2.36,0,0,1-3.35-.43,2.16,2.16,0,0,1,.14-3.21c12.39-10.2,21.13-24,21.13-50.42V275.28ZM362.13,259c0-1.17.43-1.9,2.33-1.9s2.47.73,2.47,1.9v47.5h20c1.31,0,2.18.29,2.18,2.19s-.87,2.18-2.18,2.18h-20v74.32c0,1.17-.43,2-2.47,2s-2.33-.87-2.33-2Z"/><path class="cls-1" d="M455.1,269.3c4.81,0,6,2,6,6,0,38.18-19.52,61.64-57.12,77.08a2,2,0,0,1-2.77-1.16c-.58-1.46-.14-2.63.88-3.06,35.26-14.28,53.77-35.56,54.2-72.28,0-1.46-.43-2-2-2H405.55c-1.31,0-2.18-.44-2.18-2.19s.87-2.33,2.18-2.33ZM494.59,259c0-1.17.44-1.9,2.33-1.9s2.48.73,2.48,1.9V385.15c0,1.17-.44,2-2.48,2s-2.33-.87-2.33-2Z"/><path class="cls-1" d="M5.83,546.47c-3.64,0-5.25-2.62-5.25-6.12s1.75-6.26,5.25-6.26H77.09c3.49,0,5.24,2.77,5.24,6.26s-1.6,6.12-5.24,6.12Zm36.43,5.69c20.55,0,31.62,8,31.62,20.11,0,12.53-11.07,20.4-31.62,20.4s-31.62-7.87-31.62-20.4C10.64,560.17,21.71,552.16,42.26,552.16Zm-17.2-27.84c-3.78,0-5.24-2.62-5.24-6s1.6-6.12,5.24-6.12H58.58c3.64,0,5.39,2.62,5.39,6.12s-1.6,6-5.39,6Zm-.87,87.58c0-8.59,2.62-11.51,11.51-11.51H99.82c8.89,0,11.66,2.92,11.66,11.66v23.46c0,8.74-2.77,11.37-11.81,11.37h-64c-8.89,0-11.51-2.77-11.51-11.52Zm18.07-29.72c11.37,0,17.05-3.5,17.05-9.91,0-6.12-5.68-9.62-17.05-9.62s-17,3.5-17,9.62C25.21,578.68,30.89,582.18,42.26,582.18Zm.73,30.6c-2.77,0-3.21.73-3.21,3.2v15.45c0,2.48.44,3.06,3.21,3.06H92.68c2.77,0,3.2-.58,3.2-3.06V616c0-2.47-.43-3.2-3.2-3.2Zm53-97.64c0-3.64,3.5-5.83,7.72-5.83s7.73,2.19,7.73,5.83V588c0,4.23-3.21,6.27-7.73,6.27S96,592.23,96,588Z"/><path class="cls-1" d="M136.4,624.14c-3.35,0-5.1-2.76-5.1-6.7s1.75-6.56,5.1-6.56H251.52c3.35,0,5.1,2.77,5.1,6.56s-1.75,6.7-5.1,6.7Zm12.24-93.26c0-9,2.91-11.8,12.39-11.8h74.61c3.64,0,5.53,2.48,5.53,6.56,0,3.79-1.89,6.55-5.53,6.55H168c-2.77,0-3.2.44-3.2,3.21V568c0,2.62.43,3.06,3.2,3.06h67.91c3.64,0,5.53,2.77,5.53,6.7s-2,6.56-5.68,6.56h-71c-11.08,0-16.18-.58-16.18-11.66Z"/><path class="cls-1" d="M316.08,520.39V538c0,28.27,12.24,45,29.58,54.94,3.5,2.19,3.79,6.41,1.6,9.76s-5.53,5-10.05,2.19c-11.66-6.56-24.34-19.24-28.71-33.95-4.23,15-15.88,28.56-28.85,36-4.08,2.18-7.73,1-9.91-2.19-2.48-3.35-2.33-7.14,1.31-9.76,18.36-11.66,29-27.4,29-56.54V520.39c0-3.79,3.35-5.68,8-5.68S316.08,516.6,316.08,520.39Zm61.49-5.25V637.4c0,4.23-3.06,6.42-7.72,6.42s-7.58-2.19-7.58-6.42V515.14c0-3.64,3.06-5.83,7.58-5.83S377.57,511.5,377.57,515.14Z"/><path class="cls-1" d="M402.49,611.61h28.57V590.34c0-3.79,3.64-5.54,8-5.54s7.87,1.75,7.87,5.54v21.27h26.23V590.19c0-3.64,3.79-5.39,8-5.39,4.38,0,7.87,1.75,7.87,5.39v21.42h28.56c3.5,0,5.25,2.92,5.25,6.7,0,3.94-1.75,6.71-5.25,6.71H402.49c-3.2,0-5.1-2.77-5.1-6.71C397.39,614.53,399.29,611.61,402.49,611.61Zm15-26.81c-4.66.73-7.43-.88-8.89-4.52s-.14-8.16,3.65-9c21.86-5.1,39.2-16.91,39.2-37.89v-1.31H415.17c-3.79,0-5.24-3.21-5.24-6.71s1.74-6.55,5.24-6.55h89.77c3.64,0,5.39,3.06,5.39,6.55s-1.6,6.71-5.39,6.71h-36v1.16c0,21.13,20.26,33.37,39.64,37.6,3.79.87,5.1,5.25,3.64,9-1.45,3.5-4.22,5.4-8.89,4.52-16.9-3.64-35.84-14-43.13-29.14C453.06,571,434.7,581.16,417.5,584.8Z"/><path class="cls-1" d="M599.37,543.85c0,14.87-10.93,25.36-22.59,31.91-7,3.79-8.3,7.44-8.3,14.29v7.86c0,8.31-14.87,8.75-14.87,0V588.3c0-10.64,3.64-16.47,12.39-21.57,8.16-4.52,16.46-12.24,16.46-22.15,0-10.35-7.14-16-17.63-16-6.7,0-12.82,3.79-17.34,8.89-6,7.14-15.74-.44-12.68-7,4.52-9,16.32-16,30.61-16C586.25,514.42,599.37,525.78,599.37,543.85Zm-38.76,71.7a9.51,9.51,0,0,1,9.61,9.61,9.62,9.62,0,0,1-19.23,0A9.51,9.51,0,0,1,560.61,615.55Z"/></g></g></svg>