<svg xmlns="http://www.w3.org/2000/svg" viewBox="0 0 334.44 132.21"><defs><style>.cls-1{fill:#fff;}</style></defs><title>font2자산 37</title><g id="레이어_2" data-name="레이어 2"><g id="레이어_1-2" data-name="레이어 1"><path class="cls-1" d="M69.24,3.15V16.62c0,.57.06.66.66.66a46.72,46.72,0,0,0,11.25-1,.89.89,0,0,1,1.11.81,1.07,1.07,0,0,1-.6,1.35c-3.06.87-7.29,1.17-12.75,1.08-1.71,0-2.31-.66-2.31-2.43v-14c0-.63.54-1,1.35-1S69.24,2.52,69.24,3.15ZM86.94,1V9.9h3.93c.63,0,.93.45.93,1.14s-.3,1.14-.93,1.14H86.94V26.37c0,.72-.51,1.08-1.32,1.08s-1.29-.36-1.29-1.08V1c0-.63.51-1,1.29-1S86.94.36,86.94,1Z"/><path class="cls-1" d="M101.55,19.35c-.6,0-.87-.42-.87-1s.27-1,.87-1h10.59V15.42c-4.62-.21-6.66-1.47-6.66-3.54,0-2.25,2.43-3.63,8-3.63s8,1.38,8,3.63c0,2.07-2,3.33-6.6,3.54v1.86H125.4c.6,0,.87.45.87,1s-.27,1-.87,1Zm2-12.54c-.66,0-.93-.39-.93-1s.3-1,.93-1h19.77a.92.92,0,0,1,1,1c0,.66-.3,1-1,1Zm.93,14.94c0-.66.57-1,1.35-1s1.35.36,1.35,1v3.36c0,.48.09.54.54.54H122c.63,0,1,.39,1,1.08s-.33,1.11-1,1.11H107.58c-2,0-3.06-.12-3.06-1.95Zm9-8.07c3.6,0,5.16-.66,5.16-1.83s-1.56-1.8-5.16-1.8-5.19.66-5.19,1.8S109.86,13.68,113.49,13.68Zm-4-11.13c-.57,0-.9-.33-.9-1s.33-1,.9-1h8a.9.9,0,0,1,.9,1c0,.69-.36,1-.9,1Z"/><path class="cls-1" d="M129.84,20.16a1.18,1.18,0,0,1-1.71-.36,1.12,1.12,0,0,1,.3-1.68c3.33-2.07,6-4.92,6-10.59V4.83H129c-.66,0-.93-.51-.93-1.17s.3-1.11.93-1.11h13.65c.63,0,1,.48,1,1.11s-.3,1.17-1,1.17h-5.49V7.56c0,5.61,3,8.4,6.33,10.11a1.2,1.2,0,0,1,.33,1.65,1.16,1.16,0,0,1-1.71.45,12.72,12.72,0,0,1-6.3-6.9A12.86,12.86,0,0,1,129.84,20.16ZM149.31,1v9h3.93c.63,0,.93.45.93,1.14s-.3,1.14-.93,1.14h-3.93v14.1c0,.72-.51,1.08-1.32,1.08s-1.29-.36-1.29-1.08V1c0-.63.51-1,1.29-1S149.31.36,149.31,1Z"/><path class="cls-1" d="M184.41.81c0-.24.06-.39.48-.39s.48.15.48.39v26c0,.24-.09.42-.48.42s-.48-.18-.48-.42V15.3h-7.59a5.81,5.81,0,0,1-6,4.41c-4.44,0-6.57-3.3-6.57-8.82s2.13-8.82,6.57-8.82a5.87,5.87,0,0,1,6,4.53h7.53ZM170.85,3c-3.57,0-5.55,2.7-5.55,7.89s2,7.89,5.55,7.89,5.61-2.7,5.61-7.89S174.42,3,170.85,3Zm6.24,11.37h7.32V7.53h-7.29a16.57,16.57,0,0,1,.33,3.36A15.32,15.32,0,0,1,177.09,14.37Z"/><path class="cls-1" d="M190.2,7.05c-.27,0-.45-.06-.45-.45s.18-.45.45-.45h12.27c.3,0,.48.09.48.45s-.18.45-.48.45Zm6.45,2c3.45,0,5.34,1.41,5.34,3.78s-1.89,3.78-5.34,3.78-5.34-1.41-5.34-3.78S193.2,9,196.65,9Zm0,6.69c2.85,0,4.32-1.11,4.32-2.91s-1.47-2.91-4.32-2.91S192.3,11,192.3,12.78,193.77,15.69,196.65,15.69ZM193.29,2.85c-.3,0-.45-.09-.45-.45S193,2,193.29,2h6.39c.3,0,.45.06.45.45s-.15.45-.45.45Zm10.47,15.84c5.85,0,8.91,1.59,8.91,4.38s-3.06,4.41-8.91,4.41-8.94-1.59-8.94-4.41S197.85,18.69,203.76,18.69Zm0,7.86c5.43,0,8-1.23,8-3.48s-2.52-3.45-8-3.45-8,1.23-8,3.45S198.3,26.55,203.76,26.55Zm1.47-25.26c0-.21.09-.39.51-.39s.48.18.48.39V9.48h5.25V.81c0-.24.09-.39.48-.39s.48.15.48.39v17c0,.24-.06.39-.48.39s-.48-.15-.48-.39V10.41h-5.25v6.21c0,.21-.09.39-.48.39s-.51-.18-.51-.39Z"/><path class="cls-1" d="M228.15,10.56h4.44V1.29c0-.21.09-.39.51-.39s.48.18.48.39V26c0,.24-.09.42-.48.42s-.51-.18-.51-.42V11.46h-4.44c-.09,4.41-1.41,8.19-5.58,8.19S217,15.63,217,11s1.26-8.61,5.58-8.61S228.06,6.18,228.15,10.56ZM218,11c0,4,.87,7.68,4.56,7.68S227.16,15,227.16,11s-.9-7.68-4.59-7.68S218,7.05,218,11ZM239,.81v26c0,.24-.06.42-.48.42S238,27,238,26.79V.81c0-.24.09-.39.48-.39S239,.57,239,.81Z"/><path class="cls-1" d="M246.6,4c0-1,.24-1.35,1.29-1.35h16c.27,0,.45.09.45.45s-.18.45-.45.45H248.07c-.45,0-.51.09-.51.48v9.15c0,.39.09.48.51.48h15.81c.27,0,.45.09.45.48s-.18.45-.45.45h-8.13v7.29H267.3c.27,0,.45.09.45.45s-.18.48-.45.48H243.21c-.27,0-.45-.09-.45-.48s.18-.45.45-.45h11.55V14.58H248c-1,0-1.35-.27-1.35-1.38Z"/><path class="cls-1" d="M1.71,70a1.13,1.13,0,0,1-1.56-.6A1.08,1.08,0,0,1,.6,67.83c3.21-1.2,5.73-2.88,5.88-7H.93C.3,60.81,0,60.3,0,59.7s.33-1.14.93-1.14H14.67c.63,0,1,.48,1,1.14s-.3,1.11-1,1.11H9.18c.15,4,3,5.58,6,6.63a1.06,1.06,0,0,1,.45,1.5A1.11,1.11,0,0,1,14,69.6c-2.76-1-5.1-2.43-6.15-4.95C6.93,67.26,4.62,69,1.71,70ZM4.32,55.92c-.66,0-.93-.45-.93-1.08s.3-1.11.93-1.11h6.81c.6,0,.93.45.93,1.11s-.3,1.08-.93,1.08Zm0,16.35c0-.63.57-1,1.35-1s1.35.36,1.35,1v4.89c0,.48.09.51.57.51h14.1c.63,0,.93.45.93,1.14S22.35,80,21.72,80H6.63c-1.53,0-2.28-.42-2.28-2.07ZM19.11,53.49c0-.63.54-1,1.29-1s1.29.36,1.29,1V72c0,.72-.48,1-1.29,1s-1.29-.33-1.29-1Z"/><path class="cls-1" d="M40.05,79.14c0,.72-.57,1.08-1.32,1.08s-1.38-.36-1.38-1.08V68.49H26.76c-.57,0-.9-.45-.9-1.14s.33-1.14.9-1.14h17a19.91,19.91,0,0,0,1.41-7.35V56.64c0-.51-.09-.6-.6-.6H30.3a1,1,0,0,1-1-1.11c0-.72.36-1.14,1-1.14H45.78c1.5,0,2.07.51,2.07,2v2.55a19.51,19.51,0,0,1-1.56,7.86h4.35c.57,0,.87.45.87,1.14s-.3,1.14-.87,1.14H40.05Z"/><path class="cls-1" d="M59.88,55.5c1,0,1.26.45,1.26,1.17,0,6.09-1.53,11.16-6.3,15.48a.47.47,0,0,1-.72,0,.52.52,0,0,1,0-.72c4.38-3.93,6-8.88,6-14.58,0-.3-.06-.39-.42-.39h-4.8c-.27,0-.45-.09-.45-.48s.18-.45.45-.45Zm7.41,0c1,0,1.23.45,1.23,1.17,0,6.81-.57,11.58-5.76,17.25a.52.52,0,0,1-.72,0,.54.54,0,0,1,0-.72c4.59-5,5.55-9.9,5.52-16.35,0-.3-.06-.39-.45-.39h-4.2c-.27,0-.45-.09-.45-.48s.18-.45.45-.45ZM74,53.31c0-.24.09-.39.48-.39s.51.15.51.39v26c0,.24-.09.42-.51.42s-.48-.18-.48-.42Z"/><path class="cls-1" d="M81.54,71.07V64.23c0-.81.21-1.14,1.23-1.14h8.79c.45,0,.51,0,.51-.45v-6c0-.39-.06-.45-.51-.45H82c-.3,0-.48-.09-.48-.45s.18-.48.48-.48h9.9c.93,0,1.17.39,1.17,1.23v6.39c0,.84-.39,1.08-1.23,1.08H83c-.42,0-.48.06-.48.48v6.39c0,.42.06.48.45.48,8.4.15,11.88-.42,14.1-1,.24,0,.45,0,.51.33s0,.48-.3.54c-2.31.6-5.76,1.11-14.55,1C81.93,72.27,81.54,71.94,81.54,71.07Zm18.93-17.76c0-.24.09-.39.48-.39s.51.15.51.39v26c0,.24-.09.42-.51.42s-.48-.18-.48-.42Z"/><path class="cls-1" d="M126.3,54.9c1.56,0,2,.45,2,2,0,7.83-4,13-11.52,16.11a1.61,1.61,0,0,1-.63.15,1.33,1.33,0,0,1-1.2-1.38,1,1,0,0,1,.54-1c6.33-2.64,10.08-6.63,10.08-13.14,0-.42-.12-.54-.6-.54h-8.58c-.57,0-1-.42-1-1.14s.39-1.14,1-1.14Zm6.9-1.41c0-.6.51-1,1.29-1s1.29.39,1.29,1v9h3.93c.66,0,.93.45.93,1.14s-.27,1.14-.93,1.14h-3.93v14.1c0,.72-.48,1.08-1.29,1.08s-1.29-.36-1.29-1.08Z"/><path class="cls-1" d="M142.35,66.66h10.56v-3.3c0-.63.57-.93,1.38-.93s1.32.3,1.32.93v3.3H166.2c.6,0,.87.54.87,1.11s-.27,1.11-.87,1.11H142.35c-.6,0-.87-.48-.87-1.11S141.78,66.66,142.35,66.66Zm3.21-2.76a1.15,1.15,0,0,1-1.41-.72,1.07,1.07,0,0,1,.72-1.47c4-.6,7.86-2.52,7.92-5.85h-7.32c-.63,0-.93-.51-.93-1.14s.3-1.11.93-1.11h17.64c.63,0,1,.48,1,1.11s-.3,1.14-1,1.14h-7.29c0,3.39,4.05,5.31,8,5.85.63.09.87.78.66,1.44a1.14,1.14,0,0,1-1.44.72c-3.63-.51-7.32-2.28-8.73-4.89C152.91,61.59,149.07,63.39,145.56,63.9Zm.09,7.65h14.64c2.67,0,3,.33,3,2.79v5.52c0,.63-.57,1-1.32,1s-1.35-.36-1.35-1V74.28c0-.45-.09-.51-.51-.51H145.65c-.63,0-.93-.45-.93-1.11S145,71.55,145.65,71.55Z"/><path class="cls-1" d="M175.44,55.5c1,0,1.26.45,1.26,1.17,0,6.09-1.53,11.16-6.3,15.48a.47.47,0,0,1-.72,0,.52.52,0,0,1,0-.72c4.38-3.93,6-8.88,6-14.58,0-.3-.06-.39-.42-.39h-4.8c-.27,0-.45-.09-.45-.48s.18-.45.45-.45Zm7.41,0c1,0,1.23.45,1.23,1.17,0,6.81-.57,11.58-5.76,17.25a.52.52,0,0,1-.72,0,.54.54,0,0,1,0-.72c4.59-5,5.55-9.9,5.52-16.35,0-.3-.06-.39-.45-.39h-4.2c-.27,0-.45-.09-.45-.48s.18-.45.45-.45Zm6.69-2.19c0-.24.09-.39.48-.39s.51.15.51.39v26c0,.24-.09.42-.51.42s-.48-.18-.48-.42Z"/><path class="cls-1" d="M197.1,71.07V64.23c0-.81.21-1.14,1.23-1.14h8.79c.45,0,.51,0,.51-.45v-6c0-.39-.06-.45-.51-.45h-9.6c-.3,0-.48-.09-.48-.45s.18-.48.48-.48h9.9c.93,0,1.17.39,1.17,1.23v6.39c0,.84-.39,1.08-1.23,1.08h-8.79c-.42,0-.48.06-.48.48v6.39c0,.42.06.48.45.48,8.4.15,11.88-.42,14.1-1,.24,0,.45,0,.51.33s0,.48-.3.54c-2.31.6-5.76,1.11-14.55,1C197.49,72.27,197.1,71.94,197.1,71.07ZM216,53.31c0-.24.09-.39.48-.39s.51.15.51.39v26c0,.24-.09.42-.51.42s-.48-.18-.48-.42Z"/><path class="cls-1" d="M251.1,53.31c0-.24.06-.39.48-.39s.48.15.48.39v26c0,.24-.09.42-.48.42s-.48-.18-.48-.42V67.8h-7.59a5.81,5.81,0,0,1-6,4.41c-4.44,0-6.57-3.3-6.57-8.82s2.13-8.82,6.57-8.82a5.87,5.87,0,0,1,6,4.53h7.53ZM237.54,55.5c-3.57,0-5.55,2.7-5.55,7.89s2,7.89,5.55,7.89,5.61-2.7,5.61-7.89S241.11,55.5,237.54,55.5Zm6.24,11.37h7.32V60h-7.29a16.57,16.57,0,0,1,.33,3.36A15.32,15.32,0,0,1,243.78,66.87Z"/><path class="cls-1" d="M256.89,59.55c-.27,0-.45-.06-.45-.45s.18-.45.45-.45h12.27c.3,0,.48.09.48.45s-.18.45-.48.45Zm6.45,2c3.45,0,5.34,1.41,5.34,3.78s-1.89,3.78-5.34,3.78S258,67.65,258,65.28,259.89,61.5,263.34,61.5Zm0,6.69c2.85,0,4.32-1.11,4.32-2.91s-1.47-2.91-4.32-2.91S259,63.48,259,65.28,260.46,68.19,263.34,68.19ZM260,55.35c-.3,0-.45-.09-.45-.45s.15-.45.45-.45h6.39c.3,0,.45.06.45.45s-.15.45-.45.45Zm10.47,15.84c5.85,0,8.91,1.59,8.91,4.38S276.3,80,270.45,80s-8.94-1.59-8.94-4.41S264.54,71.19,270.45,71.19Zm0,7.86c5.43,0,7.95-1.23,7.95-3.48s-2.52-3.45-7.95-3.45-8,1.23-8,3.45S265,79.05,270.45,79.05Zm1.47-25.26c0-.21.09-.39.51-.39s.48.18.48.39V62h5.25V53.31c0-.24.09-.39.48-.39s.48.15.48.39v17c0,.24-.06.39-.48.39s-.48-.15-.48-.39V62.91h-5.25v6.21c0,.21-.09.39-.48.39s-.51-.18-.51-.39Z"/><path class="cls-1" d="M294.84,63.06h4.44V53.79c0-.21.09-.39.51-.39s.48.18.48.39V78.54c0,.24-.09.42-.48.42s-.51-.18-.51-.42V64h-4.44c-.09,4.41-1.41,8.19-5.58,8.19s-5.58-4-5.58-8.61,1.26-8.61,5.58-8.61S294.75,58.68,294.84,63.06Zm-10.14.48c0,4,.87,7.68,4.56,7.68s4.59-3.72,4.59-7.68-.9-7.68-4.59-7.68S284.7,59.55,284.7,63.54Zm20.94-10.23v26c0,.24-.06.42-.48.42s-.48-.18-.48-.42v-26c0-.24.09-.39.48-.39S305.64,53.07,305.64,53.31Z"/><path class="cls-1" d="M313.29,56.49c0-1,.24-1.35,1.29-1.35h16c.27,0,.45.09.45.45s-.18.45-.45.45H314.76c-.45,0-.51.09-.51.48v9.15c0,.39.09.48.51.48h15.81c.27,0,.45.09.45.48s-.18.45-.45.45h-8.13v7.29H334c.27,0,.45.09.45.45s-.18.48-.45.48H309.9c-.27,0-.45-.09-.45-.48s.18-.45.45-.45h11.55V67.08h-6.81c-1,0-1.35-.27-1.35-1.38Z"/><path class="cls-1" d="M69,107.61c1,0,1.23.39,1.2,1.2-.24,6.51-4.65,10.59-12,12.66a.42.42,0,0,1-.54-.27.41.41,0,0,1,.24-.6c6.75-1.89,10.89-5.46,11.28-11.64,0-.33-.09-.45-.39-.45H58.71c-.3,0-.48-.06-.48-.45s.18-.45.48-.45Zm-6.69,16c0-.24.09-.42.48-.42s.48.18.48.42v7.08c0,.33.06.36.39.36H78.51c.3,0,.48.09.48.48s-.18.45-.48.45H63.6c-.9,0-1.26-.27-1.26-1.14Zm14.52-17.76c0-.24.09-.39.48-.39s.48.15.48.39v8h4.59c.27,0,.45.09.45.45s-.18.48-.45.48H77.82v9.75c0,.24-.09.42-.48.42s-.48-.18-.48-.42Z"/><path class="cls-1" d="M87.93,110.82c0-.21.09-.39.48-.39s.51.18.51.39v9.36h2.67c1.11,0,2.13,0,3-.06v-9.33c0-.21.09-.39.48-.39s.48.18.48.39v9.27a26.45,26.45,0,0,0,3.93-.54.37.37,0,0,1,.51.3c.06.33,0,.54-.27.6a38.09,38.09,0,0,1-8.07.69H84.75c-.24,0-.45-.09-.45-.48a.4.4,0,0,1,.45-.45h3.18Zm-2.91-2c-.27,0-.45-.09-.45-.45s.18-.48.45-.48H98.76c.3,0,.45.09.45.48s-.15.45-.45.45Zm4.74,15.3c0-.21.09-.39.48-.39s.51.18.51.39v6.57c0,.33.06.36.36.36h15.42c.3,0,.48.09.48.48s-.18.45-.48.45H91c-.87,0-1.26-.27-1.26-1.14Zm15.18-18.27c0-.24.09-.39.51-.39s.48.15.48.39v19.62c0,.21-.09.42-.48.42s-.51-.21-.51-.42V117.6H99.39a.4.4,0,0,1-.45-.45c0-.39.21-.48.45-.48h5.55V111.9H99.39c-.24,0-.45-.09-.45-.48a.4.4,0,0,1,.45-.45h5.55Z"/><path class="cls-1" d="M110.82,112.92c-.27,0-.45-.09-.45-.45s.18-.45.45-.45h15.33c.27,0,.45.06.45.45s-.18.45-.45.45Zm7.71,2.55c3.84,0,6.15,2.31,6.15,5.28s-2.31,5.34-6.15,5.34-6.15-2.31-6.15-5.34S114.66,115.47,118.53,115.47Zm0,9.69c3.21,0,5.1-1.8,5.1-4.41s-1.89-4.38-5.1-4.38-5.1,1.83-5.1,4.38S115.32,125.16,118.53,125.16Zm-3.78-17.25c-.3,0-.48-.09-.48-.45s.18-.45.48-.45H122c.27,0,.45.06.45.45s-.18.45-.45.45Zm14.85-2.1c0-.24.09-.39.48-.39s.51.15.51.39v11.34h4.86c.27,0,.45.09.45.48s-.18.45-.45.45h-4.86v13.71c0,.24-.09.42-.51.42s-.48-.18-.48-.42Z"/><path class="cls-1" d="M153.09,106.29c0-.21.09-.39.51-.39s.48.18.48.39V131c0,.24-.09.42-.48.42s-.51-.18-.51-.42V116.19h-6.33c-1.47,3.63-4.32,6.42-8.82,8.61a.45.45,0,0,1-.63-.27.46.46,0,0,1,.24-.66c6.6-3.18,9.51-7.74,9.48-14.49,0-.3,0-.39-.45-.39H138.3c-.3,0-.48-.09-.48-.48s.18-.45.48-.45h8.52c.87,0,1.17.39,1.17,1.11a19.38,19.38,0,0,1-.9,6.09h6Zm5.4-.48c0-.24.09-.39.48-.39s.48.15.48.39v26c0,.24-.06.42-.48.42s-.48-.18-.48-.42Z"/><path class="cls-1" d="M173.91,114.54h10v-7.11c0-.24.09-.42.48-.42s.48.18.48.42v15.75c0,.84-.42,1.08-1.32,1.08h-9.42c-.87,0-1.2-.3-1.2-1.14V107.46c0-.24.09-.42.48-.42s.51.18.51.42Zm0,8.37c0,.36.06.42.45.42h9.06c.42,0,.48,0,.48-.42v-7.44h-10Zm17-17.1c0-.24.09-.39.48-.39s.51.15.51.39v9.84h4.86c.27,0,.45.09.45.48s-.18.45-.45.45h-4.86v15.21c0,.24-.09.42-.51.42s-.48-.18-.48-.42Z"/><path class="cls-1" d="M219.6,120.24c.3,0,.45.09.45.45s-.15.48-.45.48H211V127h11.55c.27,0,.45.09.45.45s-.18.45-.45.45H198.45c-.27,0-.45-.06-.45-.45s.18-.45.45-.45H210v-5.85H203c-.81,0-1.11-.39-1.11-1.2v-5c0-.78.18-1.14,1.2-1.14h14.52c.42,0,.48,0,.48-.42v-4.56c0-.39-.06-.45-.48-.45H202.14c-.27,0-.45-.09-.45-.48s.18-.45.45-.45h15.69c.93,0,1.2.36,1.2,1.2v5c0,.84-.42,1.11-1.26,1.11H203.31c-.45,0-.51.06-.51.45v4.59c0,.42.06.48.48.48Z"/><path class="cls-1" d="M227,114.54h10v-7.11c0-.24.09-.42.48-.42s.48.18.48.42v15.75c0,.84-.42,1.08-1.32,1.08h-9.42c-.87,0-1.2-.3-1.2-1.14V107.46c0-.24.09-.42.48-.42s.51.18.51.42Zm0,8.37c0,.36.06.42.45.42h9.06c.42,0,.48,0,.48-.42v-7.44H227Zm17-17.1c0-.24.09-.39.48-.39s.51.15.51.39v9.84h4.86c.27,0,.45.09.45.48s-.18.45-.45.45h-4.86v15.21c0,.24-.09.42-.51.42s-.48-.18-.48-.42Z"/><path class="cls-1" d="M272.64,120.24c.3,0,.45.09.45.45s-.15.48-.45.48H264V127h11.55c.27,0,.45.09.45.45s-.18.45-.45.45H251.49c-.27,0-.45-.06-.45-.45s.18-.45.45-.45H263v-5.85H256c-.81,0-1.11-.39-1.11-1.2v-5c0-.78.18-1.14,1.2-1.14H270.6c.42,0,.48,0,.48-.42v-4.56c0-.39-.06-.45-.48-.45H255.18c-.27,0-.45-.09-.45-.48s.18-.45.45-.45h15.69c.93,0,1.2.36,1.2,1.2v5c0,.84-.42,1.11-1.26,1.11H256.35c-.45,0-.51.06-.51.45v4.59c0,.42.06.48.48.48Z"/></g></g></svg>