<svg xmlns="http://www.w3.org/2000/svg" viewBox="0 0 289.11 80.73"><defs><style>.cls-1{fill:#fff;}</style></defs><title>font3자산 38</title><g id="레이어_2" data-name="레이어 2"><g id="레이어_1-2" data-name="레이어 1"><path class="cls-1" d="M3.93,5.19c-.6,0-.72.12-.72.69V16.53c0,.63.06.72.72.72h2a36.14,36.14,0,0,0,8.55-.9,1.24,1.24,0,0,1,.3,0c.6,0,1.08.51,1.08,1.44a1.1,1.1,0,0,1-.75,1.17A42.21,42.21,0,0,1,5.13,20C1.71,20,0,20.16,0,17.37V4.89C0,3.12.63,2.43,2.61,2.43h9.66c.72,0,1.08.6,1.08,1.38S13,5.19,12.27,5.19Zm13.8-4c0-.78.66-1.23,1.56-1.23s1.59.45,1.59,1.23V9.81h3.63c.75,0,1.08.57,1.08,1.35s-.33,1.38-1.08,1.38H20.88v13.8c0,.9-.63,1.32-1.59,1.32s-1.56-.42-1.56-1.32Z"/><path class="cls-1" d="M46.23,1.59c1.62,0,2.19.48,2.19,1.86,0,6.72-5.16,10.47-11.88,12.06a3,3,0,0,1-.48.06A1.4,1.4,0,0,1,34.71,14a1.2,1.2,0,0,1,.9-1.2C41.16,11.52,44.55,9,45,5V4.74c0-.3-.12-.39-.57-.39H36.48c-.72,0-1.11-.57-1.11-1.41s.39-1.35,1.11-1.35ZM39,18.6c0-1.56.63-2.31,2.37-2.31H55.77c.72,0,1.08.51,1.08,1.26s-.36,1.23-1.08,1.23H42.87c-.51,0-.63.15-.63.6V21H55.35c.72,0,1,.48,1,1.2s-.33,1.23-1,1.23H42.24v1.71c0,.54.09.63.6.63H56.07c.72,0,1.08.54,1.08,1.26s-.36,1.26-1.08,1.26H41.4C39.63,28.32,39,27.63,39,26ZM53.25,1.2c0-.75.69-1.2,1.56-1.2S56.4.48,56.4,1.2v5h3.51c.75,0,1.08.54,1.08,1.32,0,.93-.39,1.38-1.08,1.38H56.4V13.5c0,.9-.63,1.29-1.59,1.29s-1.56-.42-1.56-1.29Z"/><path class="cls-1" d="M70.32,20.67c-4.83,0-7.23-3.57-7.23-9.48s2.4-9.51,7.23-9.51,7.29,3.54,7.29,9.51S75.18,20.67,70.32,20.67Zm0-16.29c-2.61,0-4.08,2.1-4.08,6.81s1.47,6.75,4.08,6.75,4.14-2.07,4.14-6.75S73,4.38,70.32,4.38ZM82,1.23C82,.45,82.62,0,83.55,0s1.59.45,1.59,1.23V26.34c0,.9-.66,1.32-1.59,1.32S82,27.24,82,26.34Z"/><path class="cls-1" d="M105.6,1.44c4,0,6.63,2.4,6.63,5.76S109.59,13,105.6,13s-6.66-2.37-6.66-5.76S101.55,1.44,105.6,1.44Zm0,10.62c3.51,0,5.61-2.07,5.61-4.86s-2.1-4.86-5.61-4.86S100,4.44,100,7.2,102.06,12.06,105.6,12.06Zm14.49,14.67c.27,0,.45.09.45.48s-.18.45-.45.45H104.43c-.81,0-1.11-.36-1.11-1.17V22.41c0-.81.21-1.14,1.2-1.14h13.32c.42,0,.48,0,.48-.42V17.58c0-.39-.06-.45-.48-.45H103.68c-.27,0-.45-.09-.45-.48s.18-.45.45-.45h14.43c.93,0,1.2.36,1.2,1.2v3.69c0,.84-.42,1.11-1.26,1.11H104.79c-.45,0-.51.06-.51.45v3.6c0,.42.06.48.48.48ZM118.32,1c0-.24.09-.39.48-.39s.51.15.51.39V14c0,.24-.09.39-.51.39s-.48-.15-.48-.39Z"/><path class="cls-1" d="M125.73,2.73h13.92c.3,0,.48.09.48.45s-.18.45-.48.45h-6.6V5.55c0,5.73,4,7.53,7.08,8.61a.44.44,0,0,1,.24.57.46.46,0,0,1-.6.33c-3.3-1.17-6.12-3.06-7.17-6.18-.81,3.18-3.42,5.37-7,6.81a.43.43,0,0,1-.6-.27c-.09-.3,0-.51.21-.6,3.39-1.47,6.84-3.45,6.84-9.27V3.63h-6.36c-.3,0-.48-.06-.48-.45S125.43,2.73,125.73,2.73ZM138,27.51c-5.64,0-8.61-1.74-8.61-4.92s2.94-4.89,8.61-4.89,8.58,1.74,8.58,4.89S143.67,27.51,138,27.51Zm0-8.91c-4.95,0-7.59,1.47-7.59,4s2.67,4.05,7.59,4.05,7.59-1.47,7.59-4.05S143,18.6,138,18.6ZM146.19,1V16.71c0,.24-.09.42-.48.42s-.51-.18-.51-.42V8.82h-6.51c-.27,0-.48-.09-.48-.45s.21-.45.48-.45h6.51V1c0-.24.09-.39.51-.39S146.19.72,146.19,1Z"/><path class="cls-1" d="M151.2,4.32c-.3,0-.45-.06-.45-.45s.15-.45.45-.45h7.05c.3,0,.48.09.48.45s-.18.45-.48.45H155.7V9c0,5.4,1.8,8.28,3.54,9.81,1.47-1.65,3.27-4.38,3.27-9.93V4.32h-2.25c-.27,0-.45-.06-.45-.45s.18-.45.45-.45h7.14c.3,0,.48.09.48.45s-.18.45-.48.45h-3.9V8.88c0,5.61,2.07,8.22,4.35,9.81a.44.44,0,0,1,0,.66.52.52,0,0,1-.69.09A10.85,10.85,0,0,1,163,12.75a11.57,11.57,0,0,1-3.24,6.81c-.42.45-.69.45-1.14,0a11.36,11.36,0,0,1-3.48-6.69A11.14,11.14,0,0,1,151,20.13a.49.49,0,0,1-.69-.09.45.45,0,0,1,0-.66c2.55-2.1,4.35-4.95,4.35-10.38V4.32ZM170.61,1c0-.24.09-.39.48-.39s.51.15.51.39v9.78h4.11c.27,0,.45.06.45.45s-.18.45-.45.45H171.6v15.3c0,.24-.09.42-.51.42s-.48-.18-.48-.42Z"/><path class="cls-1" d="M187.44,12.27c0-.21.09-.39.51-.39s.48.18.48.39v9.6h13.11c.27,0,.45.09.45.45s-.18.48-.45.48H177.45c-.27,0-.45-.09-.45-.48s.18-.45.45-.45h10Zm-6.69-8c-.3,0-.48-.09-.48-.48s.18-.45.48-.45H197c.87,0,1.2.3,1.2,1.17V7.8a28.23,28.23,0,0,1-1.32,9c-.06.27-.39.3-.63.21a.42.42,0,0,1-.21-.54,29.77,29.77,0,0,0,1.14-8.55V4.71c0-.36-.06-.42-.45-.42Z"/><path class="cls-1" d="M.09,55.89c0-.24.09-.42.51-.42s.48.18.48.42V70.23c0,.42.12.48.48.48a35.83,35.83,0,0,0,10.17-1,.4.4,0,0,1,.54.33c.06.33,0,.51-.3.57a38.2,38.2,0,0,1-10.44,1c-1.14,0-1.44-.42-1.44-1.56Zm20.7-2.43c0-.24.09-.39.48-.39s.48.15.48.39v26c0,.24-.06.42-.48.42s-.48-.18-.48-.42V64.53H15.42V78.69c0,.24-.09.42-.48.42s-.48-.18-.48-.42V53.94c0-.21.06-.39.48-.39s.48.18.48.39V63.6h5.37Z"/><path class="cls-1" d="M41.94,53.94c4,0,6.63,2.4,6.63,5.76s-2.64,5.76-6.63,5.76-6.66-2.37-6.66-5.76S37.89,53.94,41.94,53.94Zm0,10.62c3.51,0,5.61-2.07,5.61-4.86s-2.1-4.86-5.61-4.86-5.64,2.1-5.64,4.86S38.4,64.56,41.94,64.56ZM56.43,79.23c.27,0,.45.09.45.48s-.18.45-.45.45H40.77c-.81,0-1.11-.36-1.11-1.17V74.91c0-.81.21-1.14,1.2-1.14H54.18c.42,0,.48,0,.48-.42V70.08c0-.39-.06-.45-.48-.45H40c-.27,0-.45-.09-.45-.48s.18-.45.45-.45H54.45c.93,0,1.2.36,1.2,1.2v3.69c0,.84-.42,1.11-1.26,1.11H41.13c-.45,0-.51.06-.51.45v3.6c0,.42.06.48.48.48ZM54.66,53.46c0-.24.09-.39.48-.39s.51.15.51.39V66.54c0,.24-.09.39-.51.39s-.48-.15-.48-.39Z"/><path class="cls-1" d="M62.07,55.23H76c.3,0,.48.09.48.45s-.18.45-.48.45h-6.6v1.92c0,5.73,4,7.53,7.08,8.61a.44.44,0,0,1,.24.57.46.46,0,0,1-.6.33c-3.3-1.17-6.12-3.06-7.17-6.18-.81,3.18-3.42,5.37-7,6.81a.43.43,0,0,1-.6-.27c-.09-.3,0-.51.21-.6,3.39-1.47,6.84-3.45,6.84-9.27V56.13H62.07c-.3,0-.48-.06-.48-.45S61.77,55.23,62.07,55.23ZM74.37,80c-5.64,0-8.61-1.74-8.61-4.92s2.94-4.89,8.61-4.89S83,71.94,83,75.09,80,80,74.37,80Zm0-8.91c-5,0-7.59,1.47-7.59,4s2.67,4,7.59,4,7.59-1.47,7.59-4S79.29,71.1,74.37,71.1Zm8.16-17.64V69.21c0,.24-.09.42-.48.42s-.51-.18-.51-.42V61.32H75c-.27,0-.48-.09-.48-.45s.21-.45.48-.45h6.51v-7c0-.24.09-.39.51-.39S82.53,53.22,82.53,53.46Z"/><path class="cls-1" d="M87.27,65.76c-.27,0-.45-.09-.45-.45s.18-.48.45-.48h24.09c.27,0,.45.09.45.48s-.18.45-.45.45Zm12.06-12c6.15,0,8.76,1.38,8.76,4.35s-2.61,4.35-8.76,4.35-8.82-1.41-8.82-4.35S93.15,53.76,99.33,53.76Zm9.18,25.29c.27,0,.45.09.45.45s-.18.45-.45.45H91.8c-.81,0-1.11-.36-1.11-1.17V75c0-.81.18-1.14,1.2-1.14h14.43c.42,0,.48,0,.48-.45V70.53c0-.39-.06-.45-.48-.45H91.05c-.3,0-.45-.09-.45-.45s.15-.48.45-.48h15.54c.93,0,1.2.39,1.2,1.23v3.3c0,.84-.42,1.11-1.23,1.11H92.16c-.45,0-.51,0-.51.45v3.3c0,.45.06.51.48.51ZM99.33,61.53c5.67,0,7.68-1.11,7.68-3.42s-2-3.45-7.68-3.45-7.74,1.11-7.74,3.45S93.63,61.53,99.33,61.53Z"/><path class="cls-1" d="M131.61,60.87c0-.75.75-1.11,1.65-1.11s1.65.36,1.65,1.11v4.5h11.43c.69,0,1,.66,1,1.35S147,68,146.34,68H122.58c-.72,0-1-.63-1-1.32s.3-1.35,1-1.35h9Zm-5.46-4.59c-.75,0-1.14-.6-1.14-1.35s.39-1.38,1.14-1.38h14.4c2.43,0,3.06.48,3.06,2.67v1.14a17.35,17.35,0,0,1-.84,5.52,1.47,1.47,0,0,1-1.44.87c-.87,0-1.68-.48-1.68-1.2a1.28,1.28,0,0,1,.06-.33,14.15,14.15,0,0,0,.6-3.93V56.94c0-.57-.12-.66-.66-.66Zm8.34,13.92c6.27,0,9.42,1.77,9.42,5.19s-3.15,5.1-9.42,5.1-9.42-1.77-9.42-5.1S128.22,70.2,134.49,70.2Zm0,7.8c4.26,0,6.15-1,6.15-2.64s-1.89-2.64-6.15-2.64-6.18,1-6.18,2.64S130.23,78,134.49,78Z"/><path class="cls-1" d="M150,70.8c-.69,0-1.05-.57-1.05-1.38s.36-1.35,1.05-1.35h23.7c.69,0,1.05.6,1.05,1.35s-.36,1.38-1.05,1.38h-5.43v8.61c0,.9-.69,1.32-1.62,1.32s-1.5-.42-1.5-1.32V70.8h-6.57v8.61c0,.9-.69,1.29-1.62,1.29s-1.53-.39-1.53-1.29V70.8Zm11.88-17.46c6.63,0,9.39,2.55,9.39,6.12s-2.76,6.18-9.39,6.18-9.45-2.58-9.45-6.18S155.19,53.34,161.88,53.34Zm0,9.57c4.44,0,6.09-1.35,6.09-3.45S166.32,56,161.88,56s-6.15,1.38-6.15,3.42S157.35,62.91,161.88,62.91Z"/><path class="cls-1" d="M180.18,56.64c0-1,.24-1.35,1.29-1.35h16c.27,0,.45.09.45.45s-.18.45-.45.45H181.65c-.45,0-.51.09-.51.48v9.15c0,.39.09.48.51.48h15.81c.27,0,.45.09.45.48s-.18.45-.45.45h-8.13v7.29h11.55c.27,0,.45.09.45.45s-.18.48-.45.48H176.79c-.27,0-.45-.09-.45-.48s.18-.45.45-.45h11.55V67.23h-6.81c-1,0-1.35-.27-1.35-1.38Z"/><path class="cls-1" d="M211.68,60.48c-.27,0-.45-.06-.45-.45s.18-.45.45-.45h12.24c.3,0,.45.09.45.45s-.15.45-.45.45ZM218.07,63c3.42,0,5.4,1.92,5.4,5s-2,5-5.4,5-5.4-2-5.4-5S214.59,63,218.07,63Zm0,9.12c2.82,0,4.38-1.59,4.38-4.14s-1.56-4.11-4.38-4.11-4.41,1.59-4.41,4.11S215.22,72.09,218.07,72.09Zm-3.39-16.23c-.3,0-.45-.09-.45-.48s.15-.45.45-.45H221c.3,0,.48.09.48.45s-.18.48-.48.48Zm12.15-1.92c0-.21.09-.39.48-.39s.51.18.51.39V65h5V53.46c0-.24.09-.39.48-.39s.48.15.48.39v26c0,.24-.06.42-.48.42s-.48-.18-.48-.42V65.85h-5V78.69c0,.24-.09.42-.51.42s-.48-.18-.48-.42Z"/><path class="cls-1" d="M240.42,59.61h10.74V55c0-.24.09-.39.48-.39s.51.15.51.39V65.46c0,.84-.45,1.08-1.32,1.08h-4.62V72a39.15,39.15,0,0,0,8.73-.78c.27-.06.48,0,.54.3s-.06.51-.3.57a44.93,44.93,0,0,1-9.06.84H238a.4.4,0,0,1-.45-.45c0-.39.21-.48.45-.48h7.2V66.54h-4.56c-.9,0-1.23-.3-1.23-1.11V55c0-.24.09-.39.51-.39s.48.15.48.39Zm0,5.61c0,.33.06.39.45.39h9.84c.39,0,.45,0,.45-.39V60.51H240.42Zm16.86-11.76c0-.24.09-.39.48-.39s.48.15.48.39V63.78h4.59c.27,0,.45.09.45.45s-.18.48-.45.48h-4.59V79.44c0,.24-.09.42-.48.42s-.48-.18-.48-.42Z"/><path class="cls-1" d="M264.57,74.67H271V68.61c0-.24.09-.39.51-.39s.48.15.48.39v6.06h9.27V68.61c0-.24.09-.39.48-.39s.51.15.51.39v6.06h6.42c.26,0,.45.09.45.45s-.19.45-.45.45H264.57c-.27,0-.45-.06-.45-.45S264.3,74.67,264.57,74.67Zm12.06-7.38c-6,0-9.18-2.31-9.18-6.36s3.18-6.33,9.18-6.33,9.12,2.28,9.12,6.33S282.54,67.29,276.63,67.29Zm0-11.79c-5.37,0-8.13,1.92-8.13,5.43s2.79,5.43,8.13,5.43,8.07-1.89,8.07-5.43S281.91,55.5,276.63,55.5Z"/></g></g></svg>