<svg xmlns="http://www.w3.org/2000/svg" viewBox="0 0 34.47 46.52"><defs><style>.cls-1,.cls-2,.cls-3{fill:#fff;}.cls-1{stroke:#000;stroke-miterlimit:10;}.cls-2,.cls-3{stroke:#231815;stroke-linecap:round;stroke-linejoin:round;}.cls-3{stroke-width:0.75px;}</style></defs><title>main1자산 70</title><g id="레이어_2" data-name="레이어 2"><g id="레이어_1-2" data-name="레이어 1"><ellipse class="cls-1" cx="15.74" cy="20.66" rx="9.83" ry="10.98"/><circle cx="12.49" cy="21.54" r="0.88"/><circle cx="18.66" cy="21.54" r="0.88"/><path class="cls-2" d="M15.74,27.47V46S3.91,42.93.5,44V25.45S6.68,23.85,15.74,27.47Z"/><path class="cls-2" d="M15.74,27.47V46S27.57,42.93,31,44V25.45S24.8,23.85,15.74,27.47Z"/><path class="cls-2" d="M11.61,14.77s1.21,3.5,7.05,4.08"/><path class="cls-2" d="M15.74,14.77a5.51,5.51,0,0,0,5,2.41"/><path class="cls-3" d="M25,8s.76-2.32,2.26-1.39c0,0,2.15.37,0,3.24"/><path class="cls-3" d="M28.78,11.29S29.54,9,31,9.9c0,0,2.14.38,0,3.24"/><path class="cls-3" d="M20.74,4.81S21.5,2.5,23,3.43c0,0,2.15.37,0,3.24"/><path class="cls-3" d="M30.89,5.2s.76-2.31,2.26-1.39c0,0,2.14.38,0,3.24"/><path class="cls-3" d="M26.67,2S27.43-.33,28.93.59c0,0,2.14.38,0,3.24"/></g></g></svg>