<svg xmlns="http://www.w3.org/2000/svg" viewBox="0 0 927.07 366.24"><defs><style>.cls-1{fill:#fff;}.cls-2{fill:#e6e6e6;}</style></defs><title>mainPageLogo자산 1</title><g id="레이어_2" data-name="레이어 2"><g id="레이어_1-2" data-name="레이어 1"><path class="cls-1" d="M131.79,139c-3.26,0-6.42-1.43-9.4-4.26-4.78-4.53-9.45-9.34-14-14-2.28-2.34-4.56-4.69-6.86-7a6.58,6.58,0,0,1-1.51-7.35,7.52,7.52,0,0,1,6.69-4.64,6.62,6.62,0,0,1,4.75,2.08l17.12,17.26c.37.39.77.84,1.17,1.32a14.25,14.25,0,0,0,1.82,1.88c1.49-1.85,2.89-3.9,4.24-5.89.71-1,1.42-2.09,2.15-3.11L165.63,76.4a7,7,0,0,1,5.83-3.05,7.67,7.67,0,0,1,6.73,3.93,6.08,6.08,0,0,1-.62,6.47c-3.8,5.34-7.55,10.7-11.31,16.06C158.73,110.54,151,121.62,143,132.29,139.79,136.67,135.9,139,131.79,139Z"/><path class="cls-2" d="M171.45,73.48h0a7.53,7.53,0,0,1,6.62,3.86,5.94,5.94,0,0,1-.62,6.34c-3.79,5.33-7.55,10.7-11.31,16.06-7.51,10.72-15.28,21.8-23.21,32.48-3.22,4.34-7.08,6.63-11.15,6.63-3.22,0-6.36-1.42-9.31-4.22-4.78-4.53-9.45-9.34-14-14-2.28-2.35-4.56-4.7-6.86-7a6.46,6.46,0,0,1-1.49-7.21,7.39,7.39,0,0,1,6.58-4.56,6.45,6.45,0,0,1,4.66,2l8.54,8.61,8.58,8.65c.37.38.76.84,1.17,1.31a14,14,0,0,0,1.93,2h0c1.52-1.89,3-4,4.32-6,.71-1,1.42-2.09,2.15-3.11l27.63-38.86a6.87,6.87,0,0,1,5.72-3m0-.25h0a7.1,7.1,0,0,0-5.92,3.1L137.89,115.2c-.73,1-1.45,2.09-2.15,3.11-1.32,2-2.69,4-4.15,5.79a16.34,16.34,0,0,1-1.7-1.79c-.43-.5-.82-1-1.19-1.32l-8.57-8.65-8.54-8.62a6.75,6.75,0,0,0-4.84-2.11,7.66,7.66,0,0,0-6.81,4.71,6.72,6.72,0,0,0,1.54,7.49c2.3,2.31,4.62,4.7,6.86,7,4.52,4.65,9.18,9.46,14,14,3,2.85,6.19,4.29,9.48,4.29,4.15,0,8.08-2.33,11.35-6.73,7.93-10.68,15.7-21.76,23.2-32.47,3.72-5.3,7.54-10.75,11.33-16.08a6.16,6.16,0,0,0,.63-6.59,7.79,7.79,0,0,0-6.84-4Z"/><path class="cls-1" d="M46.08,279.9c-13.51,0-24.46-4.22-32.53-12.54C4.08,257.61,1.16,244.65.38,235.5a9.81,9.81,0,0,1-.25-2.22v-2.95c0-.43,0-.83,0-1.16V147.61a11,11,0,0,1,11.12-10.89,11,11,0,0,1,11.12,10.89v15.88H62.8a10.9,10.9,0,1,1,0,21.79H22.48v41.15c0,.16,0,.36,0,.52,0,.69-1.07,16.89,7.23,25.42,3.71,3.82,9.23,5.75,16.39,5.75H62.8a10.89,10.89,0,1,1,0,21.78Z"/><path class="cls-2" d="M11.25,136.84a10.9,10.9,0,0,1,11,10.77v16H62.8a10.77,10.77,0,1,1,0,21.53H22.36v41.28c0,.16,0,.36,0,.51-.05.69-1.08,16.95,7.26,25.52,3.74,3.84,9.28,5.79,16.48,5.79H62.8a10.77,10.77,0,1,1,0,21.53H46.08c-13.48,0-24.4-4.21-32.44-12.51C4.24,257.59,1.29,244.76.5,235.49a9.92,9.92,0,0,1-.25-2.21V147.61a10.9,10.9,0,0,1,11-10.77m0-.25A11.15,11.15,0,0,0,0,147.61v85.67a10.47,10.47,0,0,0,.26,2.27c.78,9.13,3.7,22.12,13.2,31.9C21.55,275.8,32.53,280,46.08,280H62.8a11,11,0,1,0,0-22H46.08c-7.13,0-12.61-1.93-16.3-5.71-8.26-8.5-7.24-24.65-7.19-25.33,0-.16,0-.37,0-.53v-41H62.8a11,11,0,1,0,0-22H22.5V147.61a11.15,11.15,0,0,0-11.25-11Z"/><path class="cls-1" d="M134.29,280.07c-31.83,0-57.73-24.67-57.73-55V207.7c0-30.32,25.9-55,57.73-55S192,177.38,192,207.7v17.38C192,255.4,166.13,280.07,134.29,280.07Zm0-105.58c-19.57,0-35.49,14.9-35.49,33.21v17.38c0,18.31,15.92,33.21,35.49,33.21s35.5-14.9,35.5-33.21V207.7C169.79,189.39,153.87,174.49,134.29,174.49Z"/><path class="cls-2" d="M134.29,152.83c31.77,0,57.62,24.61,57.62,54.87v17.38c0,30.25-25.85,54.86-57.62,54.86s-57.61-24.61-57.61-54.86V207.7c0-30.26,25.85-54.87,57.61-54.87m0,105.58c19.65,0,35.62-15,35.62-33.33V207.7c0-18.38-16-33.34-35.62-33.34s-35.61,15-35.61,33.34v17.38c0,18.38,16,33.33,35.61,33.33m0-105.83c-31.9,0-57.86,24.73-57.86,55.12v17.38c0,30.39,26,55.11,57.86,55.11s57.87-24.72,57.87-55.11V207.7c0-30.39-26-55.12-57.87-55.12Zm0,105.58c-19.5,0-35.36-14.84-35.36-33.08V207.7c0-18.24,15.86-33.09,35.36-33.09s35.37,14.85,35.37,33.09v17.38c0,18.24-15.86,33.08-35.37,33.08Z"/><path class="cls-1" d="M256.78,280.07c-23.56,0-44.54-13.45-53.47-34.26A52.41,52.41,0,0,1,199,225.08V168.8a11.13,11.13,0,0,1,22.25,0v56.28c0,18.31,15.92,33.21,35.49,33.21s35.49-14.9,35.49-33.21V168.8a11.13,11.13,0,0,1,22.25,0v56.28a52.41,52.41,0,0,1-4.27,20.73C301.32,266.62,280.34,280.07,256.78,280.07Z"/><path class="cls-2" d="M303.4,158a10.89,10.89,0,0,1,11,10.76v56.28a52.2,52.2,0,0,1-4.26,20.68c-8.9,20.77-29.84,34.18-53.35,34.18s-44.45-13.41-53.35-34.18a52.21,52.21,0,0,1-4.27-20.68V168.8a11,11,0,0,1,22,0v56.28c0,18.38,16,33.33,35.62,33.33s35.62-15,35.62-33.33V168.8a10.89,10.89,0,0,1,11-10.76m0-.25a11.14,11.14,0,0,0-11.25,11v56.28c0,18.24-15.87,33.08-35.37,33.08s-35.37-14.84-35.37-33.08V168.8a11.25,11.25,0,0,0-22.5,0v56.28a52.5,52.5,0,0,0,4.29,20.78c8.94,20.86,30,34.33,53.58,34.33s44.64-13.47,53.58-34.33a52.49,52.49,0,0,0,4.28-20.78V168.8a11.14,11.14,0,0,0-11.24-11Z"/><path class="cls-1" d="M455.13,330.38A11,11,0,0,1,444,319.48V169.09a11,11,0,0,1,11.12-10.89,11.2,11.2,0,0,1,10.3,6.78,59.67,59.67,0,0,1,36.32-12.26c31.84,0,57.74,24.67,57.74,55v17.38c0,30.32-25.9,55-57.74,55a59.79,59.79,0,0,1-35.5-11.64v51A11,11,0,0,1,455.13,330.38Zm46.62-155.87c-19.57,0-35.5,14.89-35.5,33.2v17.38c0,18.31,15.93,33.21,35.5,33.21s35.49-14.9,35.49-33.21V207.71C537.24,189.4,521.32,174.51,501.75,174.51Z"/><path class="cls-2" d="M501.75,152.85c31.77,0,57.61,24.61,57.61,54.86v17.38c0,30.25-25.84,54.87-57.61,54.87a59.39,59.39,0,0,1-35.62-11.76v51.28a11,11,0,0,1-22,0V169.09a10.9,10.9,0,0,1,11-10.77,11,11,0,0,1,10.25,6.86,59.32,59.32,0,0,1,36.37-12.33m0,105.57c19.64,0,35.62-15,35.62-33.33V207.71c0-18.38-16-33.33-35.62-33.33s-35.62,15-35.62,33.33v17.38c0,18.38,16,33.33,35.62,33.33m0-105.82a59.76,59.76,0,0,0-36.26,12.18,11.37,11.37,0,0,0-10.36-6.71,11.16,11.16,0,0,0-11.25,11V319.48a11.25,11.25,0,0,0,22.5,0V268.69a59.93,59.93,0,0,0,35.37,11.52c31.91,0,57.86-24.73,57.86-55.12V207.71c0-30.39-26-55.11-57.86-55.11Zm0,105.57c-19.5,0-35.37-14.84-35.37-33.08V207.71c0-18.24,15.87-33.08,35.37-33.08s35.37,14.84,35.37,33.08v17.38c0,18.24-15.87,33.08-35.37,33.08Z"/><path class="cls-1" d="M624.23,280.08c-31.83,0-57.74-24.67-57.74-55V207.71c0-30.32,25.91-55,57.74-55A59.63,59.63,0,0,1,660.55,165a11.21,11.21,0,0,1,10.3-6.78A11,11,0,0,1,682,169.09v94.63a11,11,0,0,1-11.12,10.89,11.21,11.21,0,0,1-10.3-6.79A59.63,59.63,0,0,1,624.23,280.08Zm0-105.57c-19.57,0-35.49,14.89-35.49,33.2v17.38c0,18.31,15.92,33.21,35.49,33.21s35.5-14.9,35.5-33.21V207.71C659.73,189.4,643.8,174.51,624.23,174.51Z"/><path class="cls-2" d="M624.23,152.85a59.32,59.32,0,0,1,36.37,12.33,11,11,0,0,1,10.25-6.86,10.9,10.9,0,0,1,11,10.77v94.63a10.9,10.9,0,0,1-11,10.76,11,11,0,0,1-10.25-6.86A59.26,59.26,0,0,1,624.23,280c-31.77,0-57.61-24.62-57.61-54.87V207.71c0-30.25,25.84-54.86,57.61-54.86m0,105.57c19.64,0,35.62-15,35.62-33.33V207.71c0-18.38-16-33.33-35.62-33.33s-35.62,15-35.62,33.33v17.38c0,18.38,16,33.33,35.62,33.33m0-105.82c-31.9,0-57.86,24.72-57.86,55.11v17.38c0,30.39,26,55.12,57.86,55.12A59.82,59.82,0,0,0,660.5,268a11.33,11.33,0,0,0,10.35,6.71,11.15,11.15,0,0,0,11.25-11V169.09a11.16,11.16,0,0,0-11.25-11,11.35,11.35,0,0,0-10.35,6.71,59.82,59.82,0,0,0-36.27-12.18Zm0,105.57c-19.5,0-35.37-14.84-35.37-33.08V207.71c0-18.24,15.87-33.08,35.37-33.08s35.37,14.84,35.37,33.08v17.38c0,18.24-15.86,33.08-35.37,33.08Z"/><path class="cls-1" d="M332.83,275.51a11,11,0,0,1-11.12-10.89V170a11,11,0,0,1,11.12-10.9,11.21,11.21,0,0,1,10.3,6.79,59.63,59.63,0,0,1,36.32-12.26c28.28,0,52.81,20.07,57.06,46.69a6.79,6.79,0,0,1,.32,2.07,7,7,0,0,1-.12,1.3,8.45,8.45,0,0,1-.19.84,11.1,11.1,0,0,1-9.64,8.36,11.41,11.41,0,0,1-12-7,6.59,6.59,0,0,1-.41-2.61c-2.75-15.86-17.81-27.85-35-27.85-19.57,0-35.5,14.9-35.5,33.21v56A11,11,0,0,1,332.83,275.51Z"/><path class="cls-2" d="M379.45,153.75c28.42,0,52.68,19.95,56.94,46.59a6.87,6.87,0,0,1,.31,2,6.77,6.77,0,0,1-.12,1.28,6,6,0,0,1-.18.82,11,11,0,0,1-9.54,8.28,13.29,13.29,0,0,1-1.4.08,11.15,11.15,0,0,1-10.46-7,6.56,6.56,0,0,1-.41-2.55c-2.77-16-17.68-28-35.14-28-19.64,0-35.62,15-35.62,33.34v56a11,11,0,0,1-22,0V170a10.9,10.9,0,0,1,11-10.77,11,11,0,0,1,10.25,6.86,59.26,59.26,0,0,1,36.37-12.34m0-.25a59.82,59.82,0,0,0-36.27,12.19A11.33,11.33,0,0,0,332.83,159a11.15,11.15,0,0,0-11.25,11v94.62a11.25,11.25,0,0,0,22.5,0v-56c0-18.24,15.87-33.09,35.37-33.09,17.15,0,32.14,11.93,34.89,27.75a6.67,6.67,0,0,0,.43,2.63,11.53,11.53,0,0,0,12.12,7.1,11.22,11.22,0,0,0,9.76-8.46,7.52,7.52,0,0,0,.18-.85,7.1,7.1,0,0,0-.21-3.44,54.44,54.44,0,0,0-19.48-33.4,59.61,59.61,0,0,0-37.69-13.36Z"/><path class="cls-1" d="M869.2,280.08c-31.83,0-57.74-24.67-57.74-55V207.71c0-30.32,25.91-55,57.74-55s57.74,24.67,57.74,55v10.81a6.84,6.84,0,0,1-5.49,6.7,11.35,11.35,0,0,1-2.24.23h-85.5c.21,18.12,16.1,32.85,35.49,32.85a35.64,35.64,0,0,0,30.17-15.91,6.83,6.83,0,0,1,2-2,11.16,11.16,0,0,1,6.17-1.83,11.61,11.61,0,0,1,7.62,2.86,10.88,10.88,0,0,1,2.25,13.91,5.83,5.83,0,0,1-.49.7A58.61,58.61,0,0,1,869.2,280.08Zm35.24-76.42c-2.18-16.63-17.29-29.15-35.24-29.15S836.14,187,834,203.66Z"/><path class="cls-2" d="M869.2,152.85c31.77,0,57.62,24.61,57.62,54.86v10.81a6.71,6.71,0,0,1-5.4,6.58,11,11,0,0,1-2.21.22H833.59c.13,18.27,16.06,33.1,35.61,33.1a35.79,35.79,0,0,0,30.28-16,6.59,6.59,0,0,1,1.94-2,11.09,11.09,0,0,1,6.1-1.8,11.48,11.48,0,0,1,7.54,2.82,10.76,10.76,0,0,1,2.23,13.76,5.6,5.6,0,0,1-.49.68,58.4,58.4,0,0,1-47.6,24c-31.77,0-57.61-24.62-57.61-54.87V207.71c0-30.25,25.84-54.86,57.61-54.86m-35.37,50.94h70.75c-2.08-16.54-17.15-29.41-35.38-29.41s-33.29,12.87-35.37,29.41M869.2,152.6c-31.9,0-57.86,24.72-57.86,55.11v17.38c0,30.39,26,55.12,57.86,55.12A58.74,58.74,0,0,0,917,256.11a6.19,6.19,0,0,0,.49-.7,11,11,0,0,0-2.28-14.08,11.71,11.71,0,0,0-7.7-2.88,11.31,11.31,0,0,0-6.24,1.84,6.82,6.82,0,0,0-2,2,35.51,35.51,0,0,1-30.07,15.85c-19.28,0-35.08-14.6-35.36-32.6h85.37a12.36,12.36,0,0,0,2.26-.22,7,7,0,0,0,5.6-6.83V207.71c0-30.39-26-55.11-57.87-55.11Zm-35.09,50.94c2.23-16.5,17.26-28.91,35.09-28.91s32.86,12.41,35.09,28.91Z"/><path class="cls-1" d="M746.72,366.11c-24.42,0-46.3-14.75-54.45-36.7a6.14,6.14,0,0,1-.22-.73,11.12,11.12,0,0,1,5.55-12.27,12,12,0,0,1,5.84-1.55,10.35,10.35,0,0,1,6,1.86,13.32,13.32,0,0,1,1.72,1.51,6.85,6.85,0,0,1,1.68,2.7c4.64,14,18.26,23.4,33.89,23.4,19.57,0,35.49-14.9,35.49-33.21V268.44a59.76,59.76,0,0,1-35.49,11.64c-31.84,0-57.74-24.67-57.74-55V207.71c0-30.32,25.9-55,57.74-55a59.73,59.73,0,0,1,36.07,12.07,11.16,11.16,0,0,1,21.67,3.48V311.12C804.46,341.44,778.56,366.11,746.72,366.11Zm0-191.6c-19.57,0-35.5,14.89-35.5,33.2v17.38c0,18.31,15.93,33.21,35.5,33.21s35.49-14.9,35.49-33.21V207.71C782.21,189.4,766.29,174.51,746.72,174.51Z"/><path class="cls-2" d="M746.72,152.85A59.31,59.31,0,0,1,782.85,165a11,11,0,0,1,10.49-7.5,10.89,10.89,0,0,1,11,10.77V311.12c0,30.25-25.84,54.87-57.61,54.87-24.37,0-46.2-14.72-54.33-36.63a5.83,5.83,0,0,1-.22-.71,11,11,0,0,1,5.49-12.13,11.87,11.87,0,0,1,5.78-1.53,10.14,10.14,0,0,1,5.91,1.83,12.71,12.71,0,0,1,1.71,1.49,6.77,6.77,0,0,1,1.65,2.66c4.66,14,18.33,23.49,34,23.49,19.64,0,35.62-15,35.62-33.34V268.2A59.39,59.39,0,0,1,746.72,280c-31.77,0-57.62-24.62-57.62-54.87V207.71c0-30.25,25.85-54.86,57.62-54.86m0,105.57c19.64,0,35.62-15,35.62-33.33V207.71c0-18.38-16-33.33-35.62-33.33s-35.62,15-35.62,33.33v17.38c0,18.38,16,33.33,35.62,33.33m0-105.82c-31.91,0-57.87,24.72-57.87,55.11v17.38c0,30.39,26,55.12,57.87,55.12a59.93,59.93,0,0,0,35.37-11.52v42.43c0,18.24-15.87,33.09-35.37,33.09-15.58,0-29.15-9.37-33.78-23.32a6.87,6.87,0,0,0-1.71-2.75,12.69,12.69,0,0,0-1.73-1.52,10.44,10.44,0,0,0-6.06-1.88,12.11,12.11,0,0,0-5.9,1.56,11.24,11.24,0,0,0-5.61,12.41c.06.25.14.5.22.74,8.17,22,30.1,36.79,54.57,36.79,31.91,0,57.86-24.73,57.86-55.12V168.27a11.28,11.28,0,0,0-21.85-3.68,59.81,59.81,0,0,0-36-12Zm0,105.57c-19.5,0-35.37-14.84-35.37-33.08V207.71c0-18.24,15.87-33.08,35.37-33.08s35.37,14.84,35.37,33.08v17.38c0,18.24-15.87,33.08-35.37,33.08Z"/><path class="cls-1" d="M448,68.69V66.63h21.72v2.06ZM458.71,83c-4.81,0-8.42-2.39-8.42-6.16s3.57-6.12,8.42-6.12,8.5,2.34,8.5,6.12S463.59,83,458.71,83Zm0-10.23c-3.37,0-6,1.6-6,4.07s2.71,4.1,6,4.1,6.12-1.52,6.12-4.1S462.12,72.75,458.71,72.75Zm-5.38,24.88V85.73h23.85v11.9Zm.12-34.2v-2h10.8v2Zm21.39,24.35H455.71v7.8h19.13Zm2.34-14.13V83.84H474.8V60h2.38V71.6h6v2.05Z"/><path class="cls-1" d="M495.3,64.7c0,8.13-1.64,16.1-7.76,23.2l-2-1.39c6.44-7.19,7.26-16,7.26-19.75h-5.74V64.7Zm8.46,0a70.83,70.83,0,0,1-.78,11h5.79V61h2.38V96.16h-2.38V77.76h-6.2a33,33,0,0,1-6.2,13.35l-2.06-1.36c5.79-7.06,6.9-16,6.9-21.35V66.76h-4.6V64.7Zm11.7,33.51V60h2.38V98.21Z"/><path class="cls-1" d="M536.78,80.88V63.76h17.33V80.88Zm15-15H539.16v13h12.57Zm-10.93,31V85.27h2.38v9.45H566v2.09Zm23.41-23.16V87.74h-2.38V60h2.38V71.64h6v2Z"/><path class="cls-1" d="M572.92,92.79V90.74h34.49v2.05Zm4.64-11.87V64.05h25.29v2H579.94V78.87h23.12v2Z"/><path class="cls-1" d="M610.7,82.28v-2.1h34.49v2.1Zm4.89-8v-13H618V72.26h23.08v2Zm0,22.91v-11H618v9h23.2v2Z"/><path class="cls-1" d="M669.88,62.32c6.36,0,10,5.75,10,14s-3.66,13.84-10,13.84-10-5.71-10-13.88S663.56,62.32,669.88,62.32Zm0,4.11c-2.92,0-5,3.69-5,9.81S667,86,669.88,86,675,82.36,675,76.24,672.88,66.43,669.88,66.43Zm11.25,13.42h5.58V71.68h-5.58L681,67.33h5.74V59.65h5.14V98.58h-5.14V84.21H681Z"/><path class="cls-1" d="M697.52,66.84h18.6v3.94h-18.6Zm9.61,17.65c-5,0-8.26-2.58-8.26-6.28S702.08,72,707.13,72s8.29,2.55,8.29,6.24S712.22,84.49,707.13,84.49Zm-5.22-23.32h10.35v3.94H701.91Zm15.2,37.49c-8.5,0-13.72-2.5-13.72-6.86S708.61,85,717.11,85s13.63,2.54,13.63,6.81S725.52,98.66,717.11,98.66Zm-10-22.79c-2.3,0-3.62,1.07-3.62,2.34s1.32,2.38,3.62,2.38,3.61-1.06,3.61-2.38S709.43,75.87,707.13,75.87Zm9.93,13c-5.21,0-8.37,1.15-8.37,3s3.16,2.92,8.37,2.92,8.46-1.07,8.46-2.92S722.24,88.89,717.06,88.89Zm8.63-4.07v-10h-3.16v8.75H717.8V60.35h4.73V70.66h3.16v-11h4.84V84.82Z"/><path class="cls-1" d="M735.22,80.8V76.69h35.15V80.8Zm3.37-16.26v-4h28.25v4Zm.12,10.31v-4h5.42l-.78-4.51,5-.7.61,5.21h7.64l.82-5.21,5,.7-1,4.51h5.42v4Zm.82,23.56V88.85h21.31V87H739.45V83h26.48v9.44H744.66v1.81h22.42v4.18Z"/><path class="cls-1" d="M791.6,81.91c-3.28.78-9.81,1.15-14.29,1.15H774.6V70.62h9.65v-4h-9.77V62.61h14.9v12h-9.64V79a61.76,61.76,0,0,0,11.33-.94ZM779.78,97.63V85.69h5.09v7.88H807v4.06Zm21.43-9V74.72h-3.16V87.57h-4.76V60.35h4.76V70.62h3.16v-11h4.85V88.6Z"/><path class="cls-1" d="M831.19,89.3c-3.2-2-7.68-6.65-9-10.88A22.26,22.26,0,0,1,813,90.08c-1-1.27-2.05-2.51-3.12-3.74,6.32-4.06,9.65-10.3,9.65-18.06V62.94h5.26v5a20,20,0,0,0,9.44,17.49C833.16,86.75,832.22,88,831.19,89.3Zm10-14.66h5.63v4.19h-5.63V98.58h-5V59.65h5Z"/><path class="cls-1" d="M859.69,62.32c6.41,0,10.11,5.75,10.11,14s-3.7,13.84-10.11,13.84-10-5.71-10-13.88S853.37,62.32,859.69,62.32Zm0,4.11c-2.91,0-5.05,3.69-5.05,9.81S856.78,86,859.69,86s5.22-3.65,5.22-9.77S862.73,66.43,859.69,66.43Zm15.94,32.15V59.65h5.09V98.58Z"/><path class="cls-1" d="M921.5,93.69H886.35v-4H921.5ZM895.92,75.13v4.23h21.55v4H890.83V62.73H917.1v4H895.92v4.35h20.24v4Z"/><text></text></g></g></svg>