<svg id="레이어_1" data-name="레이어 1" xmlns="http://www.w3.org/2000/svg" viewBox="0 0 32.33 8"><title>logo</title><path d="M3.22,3H4a.42.42,0,0,1,.4.45.42.42,0,0,1-.4.46H3.22V5.09c0,.25.15.36.31.36a.87.87,0,0,0,.32-.06.38.38,0,0,1,.5.26.43.43,0,0,1-.19.57,1.61,1.61,0,0,1-.67.14c-.87,0-1.28-.45-1.28-1.17V3.88H2c-.25,0-.37-.23-.37-.46S1.74,3,2,3h.22v-.6a.47.47,0,0,1,.51-.48.46.46,0,0,1,.5.48Z"/><path d="M8.21,4.62A1.74,1.74,0,1,1,6.48,2.91,1.69,1.69,0,0,1,8.21,4.62Zm-2.45,0a.77.77,0,0,0,.72.84.78.78,0,0,0,.72-.84.73.73,0,1,0-1.44,0Z"/><path d="M8.8,3.39a.51.51,0,0,1,1,0V5a.49.49,0,1,0,1,0V3.39a.51.51,0,0,1,1,0v2.5a.52.52,0,0,1-1,.15,1,1,0,0,1-.79.33A1.16,1.16,0,0,1,8.8,5.08Z"/><path d="M14.15,3.81a.71.71,0,0,0-.63.77V5.89a.51.51,0,0,1-1,0V3.39A.47.47,0,0,1,13,2.91a.49.49,0,0,1,.49.34.94.94,0,0,1,.73-.34,1.05,1.05,0,0,1,.59.14.47.47,0,0,1,.13.57.42.42,0,0,1-.49.26A.92.92,0,0,0,14.15,3.81Z"/><path d="M18.83,4.62A1.74,1.74,0,1,1,17.1,2.91,1.69,1.69,0,0,1,18.83,4.62Zm-2.46,0a.73.73,0,1,0,1.44,0,.73.73,0,1,0-1.44,0Z"/><path d="M19.42,3.39a.46.46,0,0,1,.5-.48.47.47,0,0,1,.51.48V5a.47.47,0,0,0,.48.5.47.47,0,0,0,.5-.48V3.39a.46.46,0,0,1,.5-.48.47.47,0,0,1,.51.48v2.5a.52.52,0,0,1-1,.15,1,1,0,0,1-.79.33,1.15,1.15,0,0,1-1.21-1.29Z"/><path d="M26.19,5.89a.51.51,0,0,1-1,0V4.31a.49.49,0,1,0-1,0v1.6a.51.51,0,0,1-1,0V3.39a.47.47,0,0,1,.51-.48.48.48,0,0,1,.49.34A1,1,0,0,1,25,2.91,1.16,1.16,0,0,1,26.19,4.2Z"/><path d="M28.35,6.3a1.55,1.55,0,0,1-1.58-1.68A1.54,1.54,0,0,1,28.35,3H29V1.84a.51.51,0,0,1,1,0V5.63a.6.6,0,0,1-.67.67Zm.07-2.44c-.45,0-.63.37-.63.76s.18.78.63.78H29V3.86Z"/></svg>