<svg id="레이어_1" data-name="레이어 1" xmlns="http://www.w3.org/2000/svg" viewBox="0 0 50 50"><defs><style>.cls-1{fill:#fff;}</style></defs><title>icon_대지 2</title><path class="cls-1" d="M41.93,41.5a1.34,1.34,0,0,1-1.35-1.35V35.71H9.42v3.94A1.34,1.34,0,0,1,8.07,41H2.83a1.35,1.35,0,0,1-1.35-1.35V9.85A1.35,1.35,0,0,1,2.83,8.5H8.07A1.34,1.34,0,0,1,9.42,9.85v9.49A6.23,6.23,0,0,1,19.68,22.6h20.9V20.46a1.35,1.35,0,0,1,1.35-1.35h5.24a1.36,1.36,0,0,1,1.35,1.35V40.15a1.35,1.35,0,0,1-1.35,1.35Z"/><path d="M8.07,9.85V25h.78A4.57,4.57,0,0,1,8.73,24a4.88,4.88,0,0,1,9.75,0H41.93V20.46h5.24V40.15H41.93V34.36H8.07v5.29H2.83V9.85H8.07m0-2.7H2.83a2.7,2.7,0,0,0-2.7,2.7v29.8a2.7,2.7,0,0,0,2.7,2.7H8.07a2.7,2.7,0,0,0,2.7-2.7V37.06H39.23v3.09a2.7,2.7,0,0,0,2.7,2.7h5.24a2.7,2.7,0,0,0,2.7-2.7V20.46a2.7,2.7,0,0,0-2.7-2.7H41.93a2.7,2.7,0,0,0-2.7,2.7v.79H20.68a7.6,7.6,0,0,0-9.91-4.33V9.85a2.7,2.7,0,0,0-2.7-2.7Z"/><rect class="cls-1" x="17.27" y="23.45" width="26.65" height="6.24" rx="0.5" ry="0.5"/><path d="M43.42,24v5.24H17.77V24H43.42m0-1H17.77a1,1,0,0,0-1,1v5.24a1,1,0,0,0,1,1H43.42a1,1,0,0,0,1-1V24a1,1,0,0,0-1-1Z"/><path class="cls-1" d="M13.6,29.32A5.37,5.37,0,1,1,19,24,5.38,5.38,0,0,1,13.6,29.32Z"/><path d="M13.6,19.08A4.87,4.87,0,1,1,8.73,24a4.88,4.88,0,0,1,4.87-4.87m0-1A5.87,5.87,0,1,0,19.48,24a5.87,5.87,0,0,0-5.88-5.87Z"/><rect class="cls-1" x="3.16" y="28.62" width="39.73" height="6.24" rx="0.5" ry="0.5"/><path d="M42.39,29.12v5.24H3.66V29.12H42.39m0-1H3.66a1,1,0,0,0-1,1v5.24a1,1,0,0,0,1,1H42.39a1,1,0,0,0,1-1V29.12a1,1,0,0,0-1-1Z"/><rect class="cls-1" x="41.43" y="19.96" width="6.24" height="20.69" rx="0.5" ry="0.5"/><path d="M47.17,20.46V40.15H41.93V20.46h5.24m0-1H41.93a1,1,0,0,0-1,1V40.15a1,1,0,0,0,1,1h5.24a1,1,0,0,0,1-1V20.46a1,1,0,0,0-1-1Z"/><rect class="cls-1" x="2.33" y="9.35" width="6.24" height="30.8" rx="0.5" ry="0.5"/><path d="M8.07,9.85v29.8H2.83V9.85H8.07m0-1H2.83a1,1,0,0,0-1,1v29.8a1,1,0,0,0,1,1H8.07a1,1,0,0,0,1-1V9.85a1,1,0,0,0-1-1Z"/></svg>