<svg id="레이어_1" data-name="레이어 1" xmlns="http://www.w3.org/2000/svg" viewBox="0 0 50 50"><defs><style>.cls-1{fill:#231815;}.cls-2{fill:#fff;}.cls-2,.cls-3{stroke:#231815;stroke-linecap:round;stroke-linejoin:round;}.cls-3{fill:none;}</style></defs><title>icon_대지 3</title><path class="cls-1" d="M24.93,11.13a4.6,4.6,0,0,1,1.66.34l17.73,6.77a4.58,4.58,0,0,1,2.78,2.85,3.43,3.43,0,0,1,.2,1.15v6.93a4,4,0,0,1-4.1,3.77,6.29,6.29,0,0,1-12.55,0h-9.4A6.21,6.21,0,0,1,15,38.87,6.19,6.19,0,0,1,8.7,32.94H6.82A4,4,0,0,1,2.7,29.17V22.24a4,4,0,0,1,4.12-3.76h6.09a3.94,3.94,0,0,0,2.38-.8l4.18-3.53c2.42-2,3.84-3,5.46-3m0-2.12c-2.49,0-4.48,1.62-6.79,3.5L14,16a1.79,1.79,0,0,1-1.06.34H6.82A6.08,6.08,0,0,0,.58,22.24v6.93a6.08,6.08,0,0,0,6.24,5.89H6.9A8.34,8.34,0,0,0,15,41,8.32,8.32,0,0,0,23,35.06h5.82a8.45,8.45,0,0,0,16.21-.28,6,6,0,0,0,4.35-5.61V22.24a5.66,5.66,0,0,0-.31-1.82,6.73,6.73,0,0,0-4-4.17L27.35,9.49A6.8,6.8,0,0,0,24.93,9Z"/><path class="cls-2" d="M42.87,32.94h.31a4,4,0,0,0,4.12-3.77V22.24a3.43,3.43,0,0,0-.2-1.15,4.58,4.58,0,0,0-2.78-2.85L26.59,11.47c-2.46-.94-3.92.09-7.12,2.68l-4.18,3.53a3.94,3.94,0,0,1-2.38.8H6.82A4,4,0,0,0,2.7,22.24v6.93a4,4,0,0,0,4.12,3.77H25"/><ellipse class="cls-2" cx="14.79" cy="32.94" rx="6.1" ry="5.93"/><ellipse class="cls-2" cx="36.93" cy="32.76" rx="6.28" ry="6.11"/><line class="cls-3" x1="17.85" y1="20.2" x2="36.93" y2="20.2"/><rect class="cls-3" x="2.7" y="23.95" width="2.42" height="5.79"/><rect class="cls-3" x="44.87" y="23.04" width="2.42" height="5.79"/></svg>