<svg id="레이어_1" data-name="레이어 1" xmlns="http://www.w3.org/2000/svg" viewBox="0 0 50 50"><defs><style>.cls-1{fill:#fff;}.cls-2{fill:#231815;}.cls-3{fill:none;stroke:#231815;stroke-linecap:round;stroke-linejoin:round;stroke-width:3px;}</style></defs><title>icon_대지 1</title><rect class="cls-1" x="6.4" y="11.83" width="37.2" height="35.54" rx="1.5" ry="1.5"/><path class="cls-2" d="M42.1,13.32V45.87H7.9V13.32H42.1m0-3H7.9a3,3,0,0,0-3,3V45.87a3,3,0,0,0,3,3H42.1a3,3,0,0,0,3-3V13.32a3,3,0,0,0-3-3Z"/><path class="cls-3" d="M17.37,23V9.3s.52-5.17,7.8-5.17c0,0,7.46-.24,7.46,5.17V23"/><circle cx="17.19" cy="23.35" r="1.22"/></svg>