<svg xmlns="http://www.w3.org/2000/svg" viewBox="0 0 54.54 48.2"><defs><style>.cls-1{fill:#fff;}.cls-1,.cls-2{stroke:#000;stroke-linecap:round;stroke-linejoin:round;stroke-width:2px;}.cls-2{fill:none;}</style></defs><title>icon_rest자산 44</title><g id="레이어_2" data-name="레이어 2"><g id="레이어_1-2" data-name="레이어 1"><rect class="cls-1" x="12.99" y="17.09" width="28.56" height="20.58"/><rect class="cls-1" x="8.53" y="37.67" width="37.49" height="4.7"/><rect class="cls-1" x="4.78" y="41.29" width="44.98" height="5.92"/><rect class="cls-1" x="10.87" y="14.56" width="3.86" height="23.11"/><rect class="cls-1" x="39.82" y="14.56" width="3.86" height="23.11"/><rect class="cls-1" x="5.93" y="15.81" width="42.69" height="4.22"/><polygon class="cls-1" points="26.52 2.84 15.1 11.8 16.31 12.84 29.88 14.26 39.45 12.84 26.52 2.84"/><polygon class="cls-1" points="27.27 1 12.99 11.82 17.71 11.82 27.27 4 36.84 11.82 41.55 11.82 27.27 1"/><path class="cls-1" d="M41.55,11.82H13A22.69,22.69,0,0,1,1,14.26s2,3,6.85,3H46.69c4.86,0,6.85-3,6.85-3A22.72,22.72,0,0,1,41.55,11.82Z"/><rect class="cls-1" x="21.64" y="23.04" width="5.33" height="11.55"/><rect class="cls-1" x="27.27" y="23.04" width="5.33" height="11.55"/><line class="cls-1" x1="15.1" y1="12.84" x2="11.74" y2="15.4"/><line class="cls-1" x1="19.88" y1="13.26" x2="18.45" y2="15.4"/><line class="cls-1" x1="25.02" y1="13.26" x2="25.02" y2="15.81"/><line class="cls-1" x1="39.83" y1="12.84" x2="43.2" y2="15.4"/><line class="cls-1" x1="35.06" y1="13.26" x2="36.49" y2="15.4"/><line class="cls-1" x1="29.92" y1="13.26" x2="29.92" y2="15.81"/><line class="cls-2" x1="15.1" y1="22.85" x2="39.82" y2="22.85"/><line class="cls-2" x1="15.1" y1="34.59" x2="39.44" y2="34.59"/></g></g></svg>