<svg id="레이어_1" data-name="레이어 1" xmlns="http://www.w3.org/2000/svg" viewBox="0 0 50 50"><defs><style>.cls-1{fill:#fff;}</style></defs><title>icon_대지 1 사본</title><path class="cls-1" d="M25,46.37A21.37,21.37,0,1,1,46.37,25,21.4,21.4,0,0,1,25,46.37Z"/><path d="M25,5A20,20,0,1,1,5,25,20,20,0,0,1,25,5m0-2.7A22.72,22.72,0,1,0,47.72,25,22.74,22.74,0,0,0,25,2.28Z"/><path d="M25,12.66a12.07,12.07,0,0,0-3.68.59,1.93,1.93,0,0,1,.12.71,11.54,11.54,0,0,1,14.81,8.17,3.16,3.16,0,0,1,.5.1A2.2,2.2,0,0,1,37,22,12.33,12.33,0,0,0,25,12.66Z"/><path d="M16,17.77a11.36,11.36,0,0,1,1.25-1.35,1.42,1.42,0,0,1,.28-.49,2.35,2.35,0,0,1-.23-.32l-.36.11a12.65,12.65,0,0,0-1.66,1.77A1.65,1.65,0,0,1,16,17.77Z"/><path d="M15.31,31.39a11.43,11.43,0,0,1-1.16-10.48,1.48,1.48,0,0,1-.59-.48,12.21,12.21,0,0,0,1.18,11.42A2,2,0,0,1,15.31,31.39Z"/><path d="M36.48,29.47l-.72-.11a11.58,11.58,0,0,1-14.3,6.7,2.64,2.64,0,0,1-.11.73,12.22,12.22,0,0,0,3.65.55,12.35,12.35,0,0,0,11.49-7.86Z"/><path class="cls-1" d="M12.54,46a1,1,0,0,1-1-1V28.45a6,6,0,0,1-3.37-5.52c0-3.26,2.35-5.92,5.25-5.92s5.24,2.66,5.24,5.92a6,6,0,0,1-3.37,5.52V45a1,1,0,0,1-1,1Z"/><path d="M13.42,18c2.34,0,4.24,2.2,4.24,4.92a4.8,4.8,0,0,1-3.37,4.8V45H12.54V27.73a4.8,4.8,0,0,1-3.37-4.8c0-2.72,1.9-4.92,4.25-4.92m0-2c-3.45,0-6.25,3.1-6.25,6.92a7,7,0,0,0,3.37,6.14V45a2,2,0,0,0,2,2h1.75a2,2,0,0,0,2-2v-16a7,7,0,0,0,3.37-6.14c0-3.82-2.8-6.92-6.24-6.92Z"/><path class="cls-1" d="M36.44,46a1,1,0,0,1-1-1V28.45a6,6,0,0,1-3.37-5.52,6,6,0,0,1,2.81-5.24,1,1,0,0,1,.51-.14l.16,0a1.05,1.05,0,0,1,.57-.4A4.93,4.93,0,0,1,37.31,17a4.79,4.79,0,0,1,.77.07,1,1,0,0,1,.59.33,1,1,0,0,1,.24,0,1.07,1.07,0,0,1,.43.09,6,6,0,0,1,3.22,5.46,6,6,0,0,1-3.37,5.52V45a1,1,0,0,1-1,1Z"/><path d="M37.31,18a4.07,4.07,0,0,1,.61.06v4.64h1V18.38a5,5,0,0,1,2.65,4.55,4.8,4.8,0,0,1-3.37,4.8V45H36.44V27.73a4.79,4.79,0,0,1-3.37-4.8,5,5,0,0,1,2.32-4.38v4.16h1V18.14a3.6,3.6,0,0,1,.93-.13m0-2a6,6,0,0,0-1.44.19,1.94,1.94,0,0,0-.73.37,2,2,0,0,0-.77.26,7,7,0,0,0-3.3,6.1,7,7,0,0,0,3.37,6.14V45a2,2,0,0,0,2,2h1.75a2,2,0,0,0,2-2v-16a7,7,0,0,0,3.37-6.14,6.94,6.94,0,0,0-3.8-6.36,1.9,1.9,0,0,0-.77-.19,1.9,1.9,0,0,0-.74-.28,5.32,5.32,0,0,0-.94-.09Z"/></svg>