<svg id="레이어_1" data-name="레이어 1" xmlns="http://www.w3.org/2000/svg" viewBox="0 0 50 50"><defs><style>.cls-1{fill:#fff;}.cls-1,.cls-2{stroke:#000;stroke-linecap:round;stroke-linejoin:round;}.cls-2{fill:none;}</style></defs><title>icon_대지 4</title><rect class="cls-1" x="13.2" y="19.21" width="23.6" height="17"/><rect class="cls-1" x="9.51" y="36.21" width="30.98" height="3.88"/><rect class="cls-1" x="6.42" y="39.2" width="37.17" height="4.89"/><rect class="cls-1" x="11.45" y="17.12" width="3.19" height="19.09"/><rect class="cls-1" x="35.37" y="17.12" width="3.19" height="19.09"/><rect class="cls-1" x="7.36" y="18.15" width="35.28" height="3.49"/><polygon class="cls-1" points="24.38 7.43 14.94 14.84 15.94 15.69 27.15 16.87 35.06 15.69 24.38 7.43"/><polygon class="cls-1" points="25 5.91 13.2 14.85 17.09 14.85 25 8.39 32.91 14.85 36.8 14.85 25 5.91"/><path class="cls-1" d="M36.8,14.85H13.2a18.8,18.8,0,0,1-9.91,2A6.75,6.75,0,0,0,9,19.39h32.1a6.75,6.75,0,0,0,5.66-2.52A18.8,18.8,0,0,1,36.8,14.85Z"/><rect class="cls-1" x="20.34" y="24.12" width="4.4" height="9.55"/><rect class="cls-1" x="25" y="24.12" width="4.4" height="9.55"/><line class="cls-1" x1="14.94" y1="15.69" x2="12.16" y2="17.81"/><line class="cls-1" x1="18.89" y1="16.04" x2="17.71" y2="17.81"/><line class="cls-1" x1="23.14" y1="16.04" x2="23.14" y2="18.15"/><line class="cls-1" x1="35.38" y1="15.69" x2="38.16" y2="17.81"/><line class="cls-1" x1="31.43" y1="16.04" x2="32.61" y2="17.81"/><line class="cls-1" x1="27.19" y1="16.04" x2="27.19" y2="18.15"/><line class="cls-2" x1="14.94" y1="23.97" x2="35.37" y2="23.97"/><line class="cls-2" x1="14.94" y1="33.67" x2="35.06" y2="33.67"/><path d="M25,5.91l11.8,8.94a18.49,18.49,0,0,0,8.71,2l1.2,0a6.37,6.37,0,0,1-4.07,2.37v2.4H38.55V36.21h1.94v3h3.09v4.89H6.42V39.2H9.51v-3h1.94V21.64H7.36v-2.4a6.37,6.37,0,0,1-4.07-2.37l1.2,0a18.49,18.49,0,0,0,8.71-2L25,5.91m21.71,11h0M25,3.41a2.5,2.5,0,0,0-1.51.51L11.83,12.75A16.57,16.57,0,0,1,4.49,14.4q-.53,0-1.05,0H3.29A2.5,2.5,0,0,0,1.2,18.24a8.37,8.37,0,0,0,3.66,2.85v.55a2.5,2.5,0,0,0,2.5,2.5H9v9.64A2.5,2.5,0,0,0,7,36.21v.49H6.42a2.5,2.5,0,0,0-2.5,2.5v4.89a2.5,2.5,0,0,0,2.5,2.5H43.58a2.5,2.5,0,0,0,2.5-2.5V39.2a2.5,2.5,0,0,0-2.5-2.5H43v-.49a2.5,2.5,0,0,0-1.94-2.43V24.14h1.59a2.5,2.5,0,0,0,2.5-2.5v-.55a8.58,8.58,0,0,0,3.55-2.7,2.45,2.45,0,0,0,.52-1.52,2.49,2.49,0,0,0-2.48-2.5h-.19c-.34,0-.69,0-1,0a16.57,16.57,0,0,1-7.34-1.65L26.51,3.92A2.5,2.5,0,0,0,25,3.41Z"/></svg>